<svg xmlns="http://www.w3.org/2000/svg" width="318.219" height="298.655" viewBox="0 0 318.219 298.655"><defs><style>.a{fill:#d6953e;}.b{fill:#b57b35;}.c{fill:#285c77;}.d{fill:#868689;}.e{fill:#6d6d6d;}.f{fill:#c5c4d7;}.g{fill:#a5a5ad;}.h{fill:#172f47;}.i{fill:#202739;}.j{fill:#a7a6bb;}.k{fill:#fefefe;}.l{fill:#fd7c3a;}.m{fill:#004db9;}.n{fill:#d3d3d3;}.n,.y{mix-blend-mode:multiply;isolation:isolate;}.o{fill:#adadad;}.p{fill:#e4e4ef;}.q{fill:#897762;}.r{fill:#331d0b;}.s{fill:#635140;}.t{fill:#edac7c;}.u{fill:#f7a588;}.v{fill:#cf9166;}.w{fill:#b57223;}.x{fill:#39748e;}.y{fill:#77bfd8;}</style></defs><g transform="translate(-72.385 -58.288)"><g transform="translate(83.628 58.288)"><g transform="translate(20.754 104.047)"><path class="a" d="M114.384,264.087l31.8-74.865V174.436L108.1,264.087Z" transform="translate(-108.104 -174.436)"/><path class="b" d="M145.3,188.316l4.563.906V174.436l-5.477,12.894-.952,2.241Z" transform="translate(-111.785 -174.436)"/></g><g transform="translate(131.612)"><path class="c" d="M304.909,89.691l-12.631,11.726,4.35,6.636a4.682,4.682,0,0,1,.3,4.536l-.021.047a4.687,4.687,0,0,1-3.632,2.737L285.4,116.41l-.641,17.223,7.768,1.616a4.685,4.685,0,0,1,3.418,3l.019.048a4.686,4.686,0,0,1-.633,4.5l-4.831,6.295,5.863,6.315,5.863,6.315,6.636-4.35a4.682,4.682,0,0,1,4.536-.3l.047.021a4.686,4.686,0,0,1,2.737,3.632l1.036,7.867,17.223.641,1.616-7.769a4.688,4.688,0,0,1,3-3.419l.048-.018a4.686,4.686,0,0,1,4.5.633l6.295,4.831,12.631-11.726-4.35-6.636a4.682,4.682,0,0,1-.3-4.536l.021-.047a4.687,4.687,0,0,1,3.632-2.737l7.867-1.036.64-17.223-7.768-1.616a4.685,4.685,0,0,1-3.418-3l-.019-.049a4.682,4.682,0,0,1,.633-4.5l4.831-6.295-5.863-6.315-5.863-6.315-6.636,4.35a4.682,4.682,0,0,1-4.536.3l-.047-.021a4.687,4.687,0,0,1-2.737-3.632l-1.036-7.867L320.37,83.95l-1.616,7.768a4.685,4.685,0,0,1-3,3.418l-.048.019a4.686,4.686,0,0,1-4.5-.633Zm41.145,19.594a25.441,25.441,0,1,1-35.954-1.337A25.441,25.441,0,0,1,346.054,109.285Z" transform="translate(-237.368 -60.962)"/><path class="a" d="M393.912,112.417l-5.58,5.18,1.922,2.932a2.069,2.069,0,0,1,.131,2l-.009.021a2.071,2.071,0,0,1-1.6,1.209l-3.476.458-.283,7.608,3.432.714a2.071,2.071,0,0,1,1.51,1.325l.008.021a2.068,2.068,0,0,1-.279,1.989l-2.134,2.781,2.59,2.79,2.59,2.79,2.932-1.922a2.069,2.069,0,0,1,2-.131l.021.01a2.068,2.068,0,0,1,1.209,1.6l.458,3.475,7.608.283.714-3.432a2.071,2.071,0,0,1,1.325-1.51l.021-.008a2.07,2.07,0,0,1,1.989.279l2.781,2.135,5.58-5.18-1.922-2.931a2.07,2.07,0,0,1-.131-2l.01-.021a2.07,2.07,0,0,1,1.6-1.209l3.475-.457.283-7.609-3.432-.714a2.07,2.07,0,0,1-1.51-1.325l-.008-.022a2.07,2.07,0,0,1,.28-1.989l2.135-2.781-2.591-2.79-2.59-2.79-2.932,1.922a2.068,2.068,0,0,1-2,.131l-.021-.009a2.073,2.073,0,0,1-1.209-1.6l-.457-3.476-7.609-.282-.714,3.432a2.07,2.07,0,0,1-1.325,1.509l-.022.008a2.068,2.068,0,0,1-1.989-.279Zm18.176,8.655a11.239,11.239,0,1,1-15.884-.59A11.239,11.239,0,0,1,412.088,121.072Z" transform="translate(-247.812 -63.663)"/><path class="a" d="M244.945,62.019l-8.208,7.62,2.827,4.312a3.041,3.041,0,0,1,.193,2.947l-.013.031a3.046,3.046,0,0,1-2.36,1.778l-5.111.673-.417,11.191,5.049,1.051a3.043,3.043,0,0,1,2.221,1.948l.012.032a3.042,3.042,0,0,1-.411,2.925l-3.139,4.09,3.81,4.1,3.81,4.1L247.518,106a3.043,3.043,0,0,1,2.947-.193l.031.014a3.045,3.045,0,0,1,1.778,2.36l.673,5.112,11.191.416,1.05-5.048a3.047,3.047,0,0,1,1.949-2.222l.031-.012a3.046,3.046,0,0,1,2.926.411l4.09,3.14,8.208-7.62-2.827-4.312a3.045,3.045,0,0,1-.193-2.948l.014-.03a3.043,3.043,0,0,1,2.36-1.778l5.112-.673.416-11.192-5.048-1.05a3.048,3.048,0,0,1-2.222-1.948l-.012-.032a3.042,3.042,0,0,1,.411-2.925l3.139-4.091-3.81-4.1-3.809-4.1L271.614,66a3.045,3.045,0,0,1-2.948.193l-.03-.014a3.045,3.045,0,0,1-1.778-2.36l-.673-5.112-11.192-.417-1.05,5.049a3.044,3.044,0,0,1-1.949,2.221l-.031.012a3.042,3.042,0,0,1-2.926-.411Zm26.736,12.732a16.532,16.532,0,1,1-23.364-.868A16.532,16.532,0,0,1,271.682,74.751Z" transform="translate(-231.855 -58.288)"/></g><g transform="translate(0 189.568)"><g transform="translate(0 4.071)"><path class="d" d="M88.815,282.208H376.789a3.879,3.879,0,0,0,3.879-3.879h0a3.879,3.879,0,0,0-3.879-3.88H88.815a3.879,3.879,0,0,0-3.879,3.88h0A3.879,3.879,0,0,0,88.815,282.208Z" transform="translate(-84.936 -274.449)"/><path class="e" d="M85.295,280.5a3.878,3.878,0,0,0,3.557,2.338H376.827a3.879,3.879,0,0,0,3.557-2.338Z" transform="translate(-84.973 -275.079)"/></g><rect class="f" width="106.859" height="4.071" transform="translate(195.616 4.071) rotate(180)"/><rect class="g" width="106.859" height="4.071" transform="translate(206.465 4.071) rotate(180)"/></g><g transform="translate(58.833 54.138)"><rect class="h" width="171.644" height="107.351" rx="7.004" transform="translate(3.605 3.605)"/><rect class="i" width="2.312" height="75.057" transform="translate(88.251 19.677)"/><path class="j" d="M326.281,134V128.53a5.783,5.783,0,0,0-5.783-5.783H160.42a5.783,5.783,0,0,0-5.783,5.783V134Z" transform="translate(-151.031 -119.142)"/><g transform="translate(103.022 21.726)"><g transform="translate(0 36.887)"><rect class="k" width="23.584" height="4.066"/><rect class="l" width="29.354" height="4.066" transform="translate(0 7.877)"/><rect class="k" width="14.552" height="4.066" transform="translate(32.365 7.877)"/><rect class="k" width="11.541" height="4.066" transform="translate(0 15.754)"/><rect class="k" width="43.404" height="4.066" transform="translate(15.555 15.754)"/><rect class="m" width="13.542" height="4.066" transform="translate(29.103)"/></g><rect class="k" width="23.584" height="4.066"/><rect class="l" width="29.354" height="4.066" transform="translate(0 7.877)"/><rect class="k" width="14.552" height="4.066" transform="translate(32.365 7.877)"/><rect class="k" width="11.541" height="4.066" transform="translate(0 15.754)"/><rect class="k" width="43.404" height="4.066" transform="translate(15.555 15.754)"/><rect class="m" width="13.542" height="4.066" transform="translate(29.103)"/></g><g transform="translate(22.787 21.726)"><g transform="translate(0 36.887)"><rect class="k" width="23.584" height="4.066"/><rect class="l" width="29.354" height="4.066" transform="translate(0 7.877)"/><rect class="k" width="14.552" height="4.066" transform="translate(32.365 7.877)"/><rect class="k" width="11.541" height="4.066" transform="translate(0 15.754)"/><rect class="k" width="43.404" height="4.066" transform="translate(15.555 15.754)"/><rect class="m" width="13.542" height="4.066" transform="translate(29.103)"/></g><rect class="k" width="23.584" height="4.066"/><rect class="l" width="29.354" height="4.066" transform="translate(0 7.877)"/><rect class="k" width="14.552" height="4.066" transform="translate(32.365 7.877)"/><rect class="k" width="11.541" height="4.066" transform="translate(0 15.754)"/><rect class="k" width="43.404" height="4.066" transform="translate(15.555 15.754)"/><rect class="m" width="13.542" height="4.066" transform="translate(29.103)"/></g><path class="d" d="M317.446,233.283H162.633a12.034,12.034,0,0,1-12.021-12.02v-90.52a12.034,12.034,0,0,1,12.021-12.02H317.446a12.033,12.033,0,0,1,12.02,12.02v90.52A12.033,12.033,0,0,1,317.446,233.283ZM162.633,125.932a4.816,4.816,0,0,0-4.811,4.811V205.21a4.816,4.816,0,0,0,4.811,4.811H317.446a4.816,4.816,0,0,0,4.811-4.811V130.743a4.816,4.816,0,0,0-4.811-4.811Z" transform="translate(-150.612 -118.723)"/><path class="n" d="M329.925,222.326l.35-1.533a12.261,12.261,0,0,0-3.615-11.715h0a12.26,12.26,0,0,0-11.953-2.727l-.745.23,9.224,8.556-1.4,6.141-6.018,1.857-9.224-8.557-.173.761a12.258,12.258,0,0,0,3.615,11.715h0a12.26,12.26,0,0,0,11.952,2.727l1.5-.464,13.538,12.559a12.059,12.059,0,0,0,7.393-6.149Z" transform="translate(-166.808 -127.796)"/><g transform="translate(0 5.445)"><path class="e" d="M318.285,124.8H163.471a4.816,4.816,0,0,0-4.811,4.81v1.765a4.816,4.816,0,0,1,4.811-4.811H318.285a4.816,4.816,0,0,1,4.811,4.811v-1.765A4.816,4.816,0,0,0,318.285,124.8Z" transform="translate(-151.451 -124.801)"/><path class="e" d="M317.446,243.239H162.633a12.033,12.033,0,0,1-12.021-12.019v1.764A12.034,12.034,0,0,0,162.633,245H317.446a12.033,12.033,0,0,0,12.02-12.02V231.22A12.033,12.033,0,0,1,317.446,243.239Z" transform="translate(-150.612 -135.889)"/></g><path class="k" d="M333.086,130.986a1.811,1.811,0,1,1-1.811-1.81A1.812,1.812,0,0,1,333.086,130.986Z" transform="translate(-169.246 -119.812)"/><path class="i" d="M326.061,130.986a1.811,1.811,0,1,1-1.81-1.81A1.811,1.811,0,0,1,326.061,130.986Z" transform="translate(-168.515 -119.812)"/><path class="l" d="M319.037,130.986a1.811,1.811,0,1,1-1.811-1.81A1.811,1.811,0,0,1,319.037,130.986Z" transform="translate(-167.783 -119.812)"/></g><g transform="translate(28.844 100.104)"><path class="a" d="M144.075,263.628l38.795-91.334-5.321-2.26-39.755,93.594Z" transform="translate(-119.287 -170.035)"/><path class="a" d="M145.1,191.186h0a2.891,2.891,0,0,1,2.891-2.891h24.775v5.781H147.989A2.89,2.89,0,0,1,145.1,191.186Z" transform="translate(-120.048 -171.937)"/><rect class="a" width="5.781" height="27.562" transform="translate(44.801 36.968) rotate(90)"/><rect class="a" width="5.781" height="28.181" transform="translate(36.543 57.578) rotate(90)"/><rect class="a" width="5.781" height="27.355" transform="translate(27.355 78.187) rotate(90)"/></g><g transform="translate(202.227 123.476)"><path class="o" d="M364.344,258.9l-30.937-43.933.66-1.426a12.26,12.26,0,0,0-12.225-17.362l-.777.07,7.244,10.288-2.646,5.714-6.273.566-7.244-10.287-.328.708a12.259,12.259,0,0,0,12.226,17.361l1.566-.141,30.937,43.932a4.768,4.768,0,1,0,7.8-5.49Z" transform="translate(-310.683 -196.125)"/><path class="d" d="M361.971,263.324h0a2.346,2.346,0,0,1-3.27-.567l-25.919-36.806a2.347,2.347,0,0,1,.568-3.27h0a2.346,2.346,0,0,1,3.27.567l25.918,36.806A2.347,2.347,0,0,1,361.971,263.324Z" transform="translate(-312.941 -198.847)"/></g></g><g transform="translate(72.385 346.878)"><path class="p" d="M385.571,390.508H77.418a5.032,5.032,0,0,1-5.033-5.033h0a5.033,5.033,0,0,1,5.033-5.033H385.571a5.034,5.034,0,0,1,5.033,5.033h0A5.033,5.033,0,0,1,385.571,390.508Z" transform="translate(-72.385 -380.443)"/><path class="f" d="M301.846,390.508H183.182a5.032,5.032,0,0,1-5.033-5.033h0a5.033,5.033,0,0,1,5.033-5.033H301.846a5.033,5.033,0,0,1,5.033,5.033h0A5.032,5.032,0,0,1,301.846,390.508Z" transform="translate(-83.404 -380.443)"/></g><g transform="translate(181.414 137.7)"><path class="q" d="M249.127,289.57h28.416a14.215,14.215,0,0,1,1.442.078c9.666,1,16.087,10.542,13.829,19.994l-11.628,54.127h-16.71l8.021-51.337h-23.37Z" transform="translate(-199.829 -161.798)"/><path class="r" d="M266.261,372.4h13.948s14.844,1.4,14.844,11.231H266.261Z" transform="translate(-201.614 -170.427)"/><path class="q" d="M245.8,289.57H217.383a14.242,14.242,0,0,0-1.442.078c-9.665,1-16.086,10.542-13.828,19.994l11.628,54.127h16.71l-8.021-51.337H245.8Z" transform="translate(-194.883 -161.798)"/><path class="s" d="M274.289,365.681c.056-.185.111-.366.168-.551,1.935-6.374,3.76-21.618,5.569-28.028,1.935-6.857,3.74-13.762,5.073-20.766.273-1.437.506-2.879.758-4.32.1-.647.159-1.076.194-1.294.089-.751.176-1.5.25-2.252.017-.181.029-.363.045-.545H249.127v6.418H272.5l-8.021,51.337Z" transform="translate(-199.829 -163.71)"/><path class="s" d="M246.775,307.926H211.026q.254,1.1.53,2.187c1.572,6.182,3.593,12.239,5.61,18.286,1.966,5.894,4.026,11.789,5.541,17.819.89,3.539,1.568,15.94,2.456,19.462h6.264l-8.021-51.337h23.369Z" transform="translate(-195.859 -163.71)"/><g transform="translate(24.485 0)"><g transform="translate(0 7.429)"><g transform="translate(0 22.123)"><path class="t" d="M230.63,183.39s-3.558-5.614-7.632-2.548.245,14.156,7.653,12.367Z" transform="translate(-221.428 -179.926)"/><path class="u" d="M230.867,187.432l.012,5.055c-6.307.51-9-8.465-6.038-9.384C227.241,182.359,229.808,185.666,230.867,187.432Z" transform="translate(-221.658 -180.246)"/><path class="v" d="M223.672,184.751s.016-.037.041-.107.071-.168.124-.291a2.073,2.073,0,0,1,.64-.811,1.194,1.194,0,0,1,.271-.135,1.439,1.439,0,0,1,.152-.046l.037-.009h0c-.028.008-.006,0-.011,0l0,0,.015,0,.023,0,.1-.017a1.274,1.274,0,0,1,.18-.02,2.137,2.137,0,0,1,.358.008,1.251,1.251,0,0,1,.19.024,4.027,4.027,0,0,1,1.51.661,7.835,7.835,0,0,1,.71.531c.226.189.447.383.657.578.417.393.792.783,1.118,1.12l1.076,1.156s-.047-.154-.154-.412a9.033,9.033,0,0,0-.525-1.032c-.124-.206-.26-.43-.422-.654s-.34-.46-.539-.69a7.32,7.32,0,0,0-1.44-1.3,4.8,4.8,0,0,0-.907-.477,3.344,3.344,0,0,0-1-.228,2.181,2.181,0,0,0-.254,0,1.623,1.623,0,0,0-.247.018,2,2,0,0,0-.248.042,1.419,1.419,0,0,0-.223.061l-.1.035-.06.021-.056.024a1.466,1.466,0,0,0-.208.107,1.705,1.705,0,0,0-.336.279,1.67,1.67,0,0,0-.366.617,2.089,2.089,0,0,0-.108.51,2.389,2.389,0,0,0-.007.328Z" transform="translate(-221.661 -180.204)"/></g><g transform="translate(45.223 26.252)"><path class="t" d="M273.615,187.128s4.467-4.921,7.955-1.2-2.668,13.9-9.66,10.872Z" transform="translate(-271.91 -184.536)"/><path class="u" d="M272.99,191.115l-.876,4.977c6.123,1.585,10.32-6.794,7.553-8.208C277.433,186.74,274.336,189.557,272.99,191.115Z" transform="translate(-271.931 -184.857)"/><path class="v" d="M280.635,189.7l-.021-.112c-.014-.074-.039-.177-.073-.308a2.02,2.02,0,0,0-.491-.91,1.186,1.186,0,0,0-.243-.18,1.409,1.409,0,0,0-.139-.067l-.038-.016h0c.028.013.005,0,.011,0h-.005l-.012-.005-.023-.009-.1-.033a1.142,1.142,0,0,0-.174-.05,1.327,1.327,0,0,0-.172-.034,1.73,1.73,0,0,0-.183-.021,1.326,1.326,0,0,0-.189-.007,4,4,0,0,0-1.6.391,8.42,8.42,0,0,0-.791.4c-.254.148-.506.3-.745.458-.478.314-.915.634-1.294.91l-1.258.955s.073-.144.225-.379a8.406,8.406,0,0,1,.693-.929c.156-.18.33-.377.528-.571s.412-.393.649-.587a7.336,7.336,0,0,1,1.64-1.031,4.893,4.893,0,0,1,.977-.314,3.327,3.327,0,0,1,1.027-.053,2.282,2.282,0,0,1,.251.039,1.438,1.438,0,0,1,.243.061,1.664,1.664,0,0,1,.236.084,1.376,1.376,0,0,1,.211.1l.089.048.056.032.051.033a1.416,1.416,0,0,1,.188.142,1.825,1.825,0,0,1,.283.331,1.677,1.677,0,0,1,.254.67,2.052,2.052,0,0,1,.02.522,2.244,2.244,0,0,1-.049.325Z" transform="translate(-272.033 -184.812)"/></g><path class="t" d="M245.165,203.757l10.251-.02s.423,16.051.461,16.051c0,0-.747,3.2-5.3,3.282s-5.676-3.263-5.676-3.263C244.944,219.718,245.165,203.757,245.165,203.757Z" transform="translate(-223.874 -160.284)"/><path class="v" d="M245.165,203.757l10.251-.02s.423,16.051.461,16.051c0,0-.747,3.2-5.3,3.282s-5.676-3.263-5.676-3.263C244.944,219.718,245.165,203.757,245.165,203.757Z" transform="translate(-223.874 -160.284)"/><path class="v" d="M245.82,206.572l10.213.881s-.047,2.053-.079,3.8c0,.254-2.977.443-3.3.467a18.251,18.251,0,0,1-7.347-1.182C245.541,208.768,245.82,206.572,245.82,206.572Z" transform="translate(-223.916 -160.579)"/><path class="v" d="M229.241,176.56c.858-7.074,4.489-13.511,11.737-15.659a29.692,29.692,0,0,1,11.443-.737c3.763.386,7.757.977,11.182,2.649,6.135,3,4.929,6.2,5.016,12.736.009.641,4,4.114,3.967,4.754-.074,1.466-.087,2.915-.268,4.378a34.024,34.024,0,0,1-2.564,9.589,21.747,21.747,0,0,1-7.507,9.325,21.84,21.84,0,0,1-17.317,2.9,23.07,23.07,0,0,1-7.107-3.246,20.452,20.452,0,0,1-7.489-10.1,31.343,31.343,0,0,1-1.625-10.576,33.381,33.381,0,0,1,.5-5.855C229.221,176.661,229.234,176.611,229.241,176.56Z" transform="translate(-222.186 -155.72)"/><g transform="translate(6.647 14.715)"><path class="v" d="M228.868,177.976a52.092,52.092,0,0,1,.217-6.319C228.8,175.271,228.868,177.976,228.868,177.976Z" transform="translate(-228.848 -171.657)"/></g><path class="w" d="M232.443,161.748c6.427-9.648,40.785-12.574,42.962,19.932,1.587,23.689-25.177,26.636-38.057,21.075C215.437,193.292,226.014,171.394,232.443,161.748Z" transform="translate(-221.713 -155.23)"/></g><path class="w" d="M227.917,185.172s-3.048-.929-4.783-7.767c-1.185-4.673.171-14.511,5.929-19.245,3.378-2.778,4.317-1.483,4.317-1.483s.884-3.345,7.277-6.116c20.956-9.084,26.3.8,29.281,8.953,4.067,11.13,2.025,19.434-19.891,12.26-8.851-2.9-14.474-4.341-14.474-4.341a18.023,18.023,0,0,1-1.7,6.936c-1.773,4.068-6.023,8.486-6.023,8.486" transform="translate(-221.564 -146.937)"/></g><path class="m" d="M285.637,255.449,273.409,227.6c-1.752-3.989-6.454-6.658-11.732-6.658H230.866c-5.277,0-9.979,2.669-11.732,6.658l-12.228,27.845c-2.844,6.476,3.151,13.261,11.718,13.261h55.293C282.485,268.71,288.481,261.925,285.637,255.449Z" transform="translate(-195.355 -154.648)"/><rect class="x" width="60.906" height="71.993" rx="14.084" transform="translate(20.787 71.221)"/><rect class="c" width="54.968" height="67.581" rx="14.084" transform="translate(23.756 71.221)"/><rect class="x" width="54.968" height="35.701" rx="14.084" transform="translate(22.856 27.265)"/><path class="c" d="M261.369,210.166H233.615a10.214,10.214,0,0,1-10.181-10.247v-10.96a10.214,10.214,0,0,1,10.181-10.247h27.754a10.214,10.214,0,0,1,10.181,10.247v10.96A10.214,10.214,0,0,1,261.369,210.166Z" transform="translate(-197.152 -150.247)"/><ellipse class="c" cx="35.659" cy="8.378" rx="35.659" ry="8.378" transform="translate(14.384 144.361)"/><path class="x" d="M219.576,311.056a266.568,266.568,0,0,0,27.217,1.187,266.561,266.561,0,0,0,27.217-1.187c-6.541-1.815-16.3-2.968-27.217-2.968S226.117,309.241,219.576,311.056Z" transform="translate(-196.75 -163.727)"/><path class="y" d="M210.917,319.269c3.243,3.842,17.665,6.74,34.974,6.74s31.731-2.9,34.973-6.74Z" transform="translate(-195.848 -164.892)"/><path class="i" d="M254.586,362.749H244.113v-85.7a5.236,5.236,0,0,1,5.237-5.237h0a5.236,5.236,0,0,1,5.236,5.237Z" transform="translate(-199.306 -159.947)"/><path class="i" d="M253.213,264.252h-7.366V190.76a3.684,3.684,0,0,1,3.684-3.684h0a3.683,3.683,0,0,1,3.683,3.684Z" transform="translate(-199.487 -151.119)"/><path class="r" d="M230.451,372.4H216.5s-14.843,1.4-14.843,11.231h28.791Z" transform="translate(-194.883 -170.427)"/><g transform="translate(0 113.133)"><path class="i" d="M243.747,319.974a92.424,92.424,0,0,1-30.605-3.468c-11.5-3.4-10.041-27.148-8.167-38.418,4.513-.182,7.971-1.191,7.971-2.414,0-1.351-4.22-2.447-9.426-2.447s-9.425,1.1-9.425,2.447c0,1.12,2.9,2.061,6.853,2.352-1.4,8.894-4.56,37.1,10.864,41.664a97.514,97.514,0,0,0,27.025,3.826c3.165,0,5.12-.168,5.339-.187Z" transform="translate(-194.095 -273.228)"/><g transform="translate(51.61)"><path class="i" d="M252.135,319.974a92.427,92.427,0,0,0,30.606-3.468c11.5-3.4,10.041-27.148,8.166-38.418-4.512-.182-7.97-1.191-7.97-2.414,0-1.351,4.22-2.447,9.426-2.447s9.425,1.1,9.425,2.447c0,1.12-2.9,2.061-6.853,2.352,1.4,8.894,4.56,37.1-10.863,41.664a97.514,97.514,0,0,1-27.025,3.826c-3.165,0-5.12-.168-5.339-.187Z" transform="translate(-251.708 -273.228)"/></g></g><path class="i" d="M255.436,379.478a6.152,6.152,0,1,1-6.151-6.152A6.151,6.151,0,0,1,255.436,379.478Z" transform="translate(-199.204 -170.524)"/><path class="i" d="M255.436,273.55a6.152,6.152,0,1,1-6.151-6.152A6.152,6.152,0,0,1,255.436,273.55Z" transform="translate(-199.204 -159.487)"/><g transform="translate(23.605 202.802)"><path class="i" d="M232.749,379.478a6.152,6.152,0,1,1-6.152-6.152A6.151,6.151,0,0,1,232.749,379.478Z" transform="translate(-220.445 -373.326)"/><path class="i" d="M278.041,379.478a6.152,6.152,0,1,1-6.152-6.152A6.152,6.152,0,0,1,278.041,379.478Z" transform="translate(-225.164 -373.326)"/></g><rect class="i" width="37.3" height="4.312" transform="translate(31.43 201.971)"/></g></g></svg>