<svg xmlns="http://www.w3.org/2000/svg" width="496.529" height="431.835" viewBox="0 0 496.529 431.835"><defs><style>.a{fill:#ffb1ad;}.b{fill:#342d7a;}.c,.q{fill:#fff;}.c,.t{stroke:#342d7a;}.ad,.ai,.ak,.al,.aq,.av,.aw,.c,.d,.r,.t{stroke-miterlimit:10;}.c{stroke-width:4px;}.ad,.ai,.ak,.al,.aq,.av,.aw,.d,.f,.r,.t{fill:none;}.d{stroke:#f17154;stroke-width:0.35px;}.ad,.ai,.al,.aq,.av,.aw,.d,.f,.r{stroke-linecap:round;}.e{fill:#07a8a0;}.f{stroke:#ff5d62;stroke-linejoin:round;}.aq,.f,.r{stroke-width:2px;}.g,.h{fill:#5a50bf;}.h,.k{opacity:0.3;}.h,.k,.m{mix-blend-mode:multiply;isolation:isolate;}.i{fill:#4545ab;}.j,.k{fill:#ff5d62;}.l,.m{fill:#a1a1e7;}.m{opacity:0.63;}.n{fill:#c5c3fd;}.o{fill:#6363cc;}.p{fill:#04b7b2;}.ai,.ak,.av,.r{stroke:#fff;}.s{fill:#eef7ff;}.u{fill:#7686d3;}.v{fill:#fab620;}.w{fill:#e89f0f;}.x{fill:#ffd180;}.y{fill:#4d5bb2;}.z{fill:#3f4e99;}.aa{fill:#f5faff;}.ab{fill:#9393ce;}.ac{fill:#6363ad;}.ad{stroke:#1b1951;stroke-width:0.211px;}.ae{fill:#ff706a;}.af{fill:#00c4c5;}.ag{fill:#008481;}.ah{fill:#ff8d71;}.ai,.ak{stroke-width:0.844px;}.aj{fill:#ffa19f;}.al{stroke:#008e8b;stroke-width:1.049px;}.am{fill:#008e8b;}.an{fill:#1c1b4c;}.ao{fill:#f49492;}.ap{fill:#f27c7c;}.aq{stroke:#8f9ecc;}.ar{fill:#201e60;}.as{fill:#d5eaf7;}.at{fill:#d1d1f2;}.au{fill:#a0a8f6;}.av{stroke-dasharray:3;}.aw{stroke:#a1a1e7;stroke-width:1.461px;}</style></defs><g transform="translate(-30.99 -51.715)"><g transform="translate(149.187 112.789)"><g transform="translate(0 0)"><path class="a" d="M151.928,173.94a12.194,12.194,0,0,1,6.545,1.795c1.173.712,3.98,5.721,7.166,9.254s-11.7,15.475-11.7,15.475l-2.011-8.95Z" transform="translate(-135.519 -98.944)"/><path class="a" d="M172.654,220.891s2.685-17.882,2.882-19.417c.546-4.258-.893-14.22-1.606-16.663-.731-2.508-5.081-7.787-6.846-10.776s-4.508-6.331-5.544-5.082-1.641,2.972-.765,6.684,4.4,7.274,4.282,9.253-15.882,7.563-14.71,12.753,6.021,8.78,7.7,11.761-1.072,12.881-1.072,12.881Z" transform="translate(-135.706 -99.543)"/><rect class="b" width="9.11" height="47.444" rx="2.348" transform="translate(24.027 65.511) rotate(13.752)"/><rect class="b" width="4.27" height="8.355" transform="translate(27.68 60.767) rotate(13.753)"/><circle class="c" cx="26.07" cy="26.07" r="26.07" transform="translate(0 27.777) rotate(-32.191)"/><g transform="translate(13.616 74.992)"><path class="a" d="M154,192.1s5.328,4.828,5.834,6.549-.561,2.541-2.283,2.114-6.61-4.767-7.132-5.409a2.532,2.532,0,0,1,.039-3.626C151.163,191.033,152.918,191.089,154,192.1Z" transform="translate(-149.393 -171.961)"/><path class="d" d="M159.835,198.6c.506,1.721-.561,2.541-2.283,2.114s-6.61-4.767-7.132-5.409a2.532,2.532,0,0,1,.039-3.626" transform="translate(-149.393 -171.914)"/><path class="a" d="M154.473,186.384s6.234,5.648,6.825,7.661-.657,2.971-2.67,2.473-7.732-5.577-8.341-6.328a3.02,3.02,0,0,1,.045-4.241C151.293,184.99,153.207,185.2,154.473,186.384Z" transform="translate(-149.42 -172.635)"/><path class="d" d="M161.3,193.983c.59,2.013-.657,2.971-2.67,2.473s-7.732-5.576-8.341-6.328a3.02,3.02,0,0,1,.045-4.241" transform="translate(-149.42 -172.574)"/><path class="a" d="M154.691,180.6s6.233,5.647,6.824,7.66-.656,2.972-2.669,2.473-7.733-5.575-8.342-6.328a3.049,3.049,0,0,1,.046-4.241C151.359,179.342,153.425,179.42,154.691,180.6Z" transform="translate(-149.394 -173.288)"/><path class="d" d="M161.515,188.206c.591,2.013-.656,2.972-2.669,2.473s-7.733-5.575-8.342-6.328a3.049,3.049,0,0,1,.046-4.241" transform="translate(-149.394 -173.232)"/><path class="a" d="M154.644,174.933s6.233,5.648,6.824,7.661-.656,2.971-2.67,2.473-7.732-5.576-8.341-6.328a3.019,3.019,0,0,1,.046-4.241C151.273,173.637,153.379,173.751,154.644,174.933Z" transform="translate(-149.4 -173.936)"/><path class="d" d="M161.468,182.536c.592,2.013-.656,2.971-2.67,2.473s-7.732-5.576-8.341-6.328a3.019,3.019,0,0,1,.046-4.241" transform="translate(-149.4 -173.878)"/></g></g><g transform="translate(5.3 114.598)"><path class="e" d="M176.029,212.778,158,209.49s-23.043,72.957-13.892,88.755l30.445-13.31C171.536,268.255,176.029,212.778,176.029,212.778Z" transform="translate(-141.955 -209.49)"/><path class="e" d="M218.725,320.264s-30-30.832-44.586-43.834l-30.255,14.186c7.14,15.742,45.453,52.105,45.453,52.105Z" transform="translate(-141.736 -201.862)"/></g><g transform="translate(20.952 22.759)"><path class="f" d="M156.006,154.592l2.182-17.638,20.468,7.241,3.156-17.081" transform="translate(-156.006 -127.039)"/><path class="f" d="M175.453,129.975l4.154-2.929,2.929,4.153" transform="translate(-153.79 -127.046)"/></g><path class="a" d="M163.787,183.7s-6.45-10.82-4.031-14.244c2.3-3.249,5.1,2.716,6.615,5.094" transform="translate(-134.689 -99.562)"/></g><g transform="translate(34.181 116.348)"><g transform="translate(38.209 63.765)"><path class="g" d="M125.3,238.871a10.88,10.88,0,0,1-1.009.553c-2.747,1.307-5.553,1.235-6.583-.1-.268.082-.519.155-.763.216-1.3.338-2.19.4-2.408.1l-4.388-6.081-.712-.984,18.894-9.005,2.271,8.411c.116.427-.759,1.268-2.24,2.265C128.692,235.674,127.438,237.55,125.3,238.871Z" transform="translate(-63.565 -160.612)"/><path class="h" d="M116.867,238.522c-1.3.338-2.19.4-2.408.1l-4.388-6.081,3.235.8S115.3,236.313,116.867,238.522Z" transform="translate(-63.492 -159.59)"/><path class="i" d="M113.19,232.888s-16.34,9.056-29.195,9.941a3.028,3.028,0,0,1-2.843-1.535c-.175-.307-.362-.652-.563-1.036a37.173,37.173,0,0,1-4.107-12.093,3.032,3.032,0,0,1,3.428-3.357,54.8,54.8,0,0,0,23.454-2.342q2.246-.7,4.615-1.621Z" transform="translate(-67.323 -160.923)"/><path class="h" d="M112.767,232.888s-16.34,9.056-29.195,9.941a3.028,3.028,0,0,1-2.843-1.535c-.175-.307-.362-.652-.563-1.036,9.163.969,28.5-8.186,28.5-8.186a86.89,86.89,0,0,0-5.727-9.606q2.246-.7,4.615-1.621Z" transform="translate(-66.9 -160.923)"/><path class="j" d="M102.293,219.963a13.034,13.034,0,0,1-1.981.687c-2.491.675-6.744,1.13-9.255-2.451a.87.87,0,0,1,1.135-1.267,7.047,7.047,0,0,0,5.81.37,11.6,11.6,0,0,0,2.952-1.518Z" transform="translate(-65.677 -161.5)"/><path class="k" d="M101.566,219.963a13.035,13.035,0,0,1-1.981.687c-.725-1.2-1.858-2.741-2.309-3.347a11.6,11.6,0,0,0,2.952-1.518Z" transform="translate(-64.95 -161.5)"/><path class="l" d="M125.059,238.048c-.394.188-.783.371-1.174.546-5.4,2.474-9.894,3.805-10.28,3C96.8,206.335,73.5,200.736,73.5,200.736l15.959-8.511,10.979-5.855L128.559,174.5s-10.333,21.624,6.471,56.888C135.442,232.245,130.977,235.228,125.059,238.048Z" transform="translate(-67.66 -166.205)"/><path class="m" d="M123.885,236.781c-5.4,2.474-9.894,3.805-10.28,3C96.8,204.521,73.5,198.923,73.5,198.923l15.959-8.511a90,90,0,0,1,21.419,22C116.343,220.373,120.987,230.111,123.885,236.781Z" transform="translate(-67.66 -164.391)"/><path class="g" d="M118.439,169.7a68.765,68.765,0,0,1,6.791-2.262c2.238-.571,3.2-.515,3.543.207,0,0,2.57,4.368.382,7.7a2.473,2.473,0,0,1-.7.862v0h0c-2.757,2.509-13.115,8.324-25.817,14.378s-23.743,10.438-27.429,11h0a2.468,2.468,0,0,1-1.112,0c-3.965-.4-5.739-5.145-5.739-5.145h0c-.344-.722.217-1.5,2.071-2.882a69.047,69.047,0,0,1,6.034-3.851c5.386-3.14,12.718-6.951,20.645-10.729S112.606,171.908,118.439,169.7Z" transform="translate(-68.257 -167.053)"/><path class="n" d="M97.318,179.506c-16.356,7.8-29.089,15.22-28.438,16.585s14.436-3.85,30.792-11.645,29.089-15.219,28.438-16.584S113.674,171.712,97.318,179.506Z" transform="translate(-68.189 -166.986)"/><g transform="translate(1.604 1.312)"><path class="o" d="M97.506,180.036c-5.025,2.395-9.433,4.616-13.177,6.6l-.032.016c-8.316,4.4-13.353,7.63-14.6,8.938,2.616-.212,13.385-4.078,29.6-11.8,4.065-1.937,7.728-3.763,10.959-5.437,9.66-5.009,15.493-8.693,16.85-10.117C124.484,168.439,113.718,172.309,97.506,180.036Z" transform="translate(-69.697 -168.231)"/></g><path class="h" d="M124.45,237.348a10.891,10.891,0,0,1-1.009.553c-2.747,1.307-5.553,1.235-6.583-.1,0,0,1.7-.618,2.223-.867C119.08,236.938,120.724,238.755,124.45,237.348Z" transform="translate(-62.719 -159.089)"/><path class="a" d="M84.949,242.369s-.094.92,1.926,3.984,3.342,2.716,4.317,5.5a25.075,25.075,0,0,1,1.212,4.734l14.8-3.691s-2.02-5.082-2.089-6.614,1.462-6.544,2.089-8.7.918-3,.58-5.082-5.2-8.958-6.126-9.237-1.394,1.161-1.626,2.832,1.9,5,2.367,6.161c.281.7-.52,2.6-1.193,3.979a4.726,4.726,0,0,1-2.391,2.271c-1.011.431-2.426,1.059-4.079,1.6A80.007,80.007,0,0,1,84.949,242.369Z" transform="translate(-66.355 -160.651)"/><path class="a" d="M87.99,223.156s1.877,6.088,2.188,7.161c.28.967,1.424,2.823,2.7,2.579,1.249-.24,1.571-1.46,1.526-2.884a54.029,54.029,0,0,0-1.4-7.963C92.289,219.989,87.99,220.014,87.99,223.156Z" transform="translate(-66.008 -160.948)"/><path class="a" d="M84.107,224.077s1.773,5.751,2.066,6.764c.265.913,1.358,2.352,2.523,2.163,1.186-.192,1.508-1.105,1.466-2.451a51.084,51.084,0,0,0-1.321-7.521C88.168,221.085,84.107,221.11,84.107,224.077Z" transform="translate(-66.451 -160.827)"/><path class="a" d="M80.784,224.834s1.555,5.043,1.811,5.931c.232.8,1.191,2.062,2.212,1.9,1.04-.168,1.322-.97,1.286-2.15a44.88,44.88,0,0,0-1.159-6.595C84.344,222.211,80.784,222.232,80.784,224.834Z" transform="translate(-66.83 -160.707)"/><path class="a" d="M92.214,222.645s1.651,5.351,1.924,6.295c.246.85,1.26,2.26,2.348,2.013s1.4-1.028,1.363-2.281a47.571,47.571,0,0,0-1.23-7C95.994,219.86,92.214,219.884,92.214,222.645Z" transform="translate(-65.527 -160.971)"/></g><path class="p" d="M133.217,307.468c-9.811-16.647-25.064-60.136-25.064-60.136L88.49,251.965s8.187,57.662,17.221,74.428a24.848,24.848,0,0,0,7.586,8.065C127.168,344.773,181.18,358.9,181.18,358.9l14.839-33.879S152.438,311.855,133.217,307.468Z" transform="translate(-27.743 -94.139)"/><g transform="translate(0)"><path class="q" d="M89.565,180.923,52.455,162.55l7.917-2.736L33.957,136.869l43.516,25.456-11.094,1.657Z" transform="translate(-33.957 -106.727)"/><path class="q" d="M94.806,175.771,68.17,144.065l8.35.666-15-31.608,29.666,40.763-10.828-2.928Z" transform="translate(-30.817 -109.433)"/><path class="q" d="M105.211,169.328,94.454,136.1l6.314,3.17-1.7-29.46,10.252,41.265-7.533-5.723Z" transform="translate(-27.063 -109.811)"/></g></g><g transform="translate(263.22 164.499)"><g transform="translate(0 0)"><rect class="b" width="41.905" height="54.695" rx="2.862" transform="translate(9.85 53.588) rotate(-103.595)"/><g transform="translate(16.326 3.089)"><rect class="l" width="17.432" height="17.431" rx="1.228" transform="matrix(-0.235, -0.972, 0.972, -0.235, 8.598, 44.113)"/><rect class="l" width="17.431" height="17.432" rx="1.228" transform="translate(4.097 25.502) rotate(-103.595)"/><rect class="l" width="17.432" height="17.432" rx="1.228" transform="translate(27.047 39.651) rotate(-103.595)"/><rect class="l" width="17.432" height="17.432" rx="1.228" transform="matrix(-0.235, -0.972, 0.972, -0.235, 22.547, 21.04)"/></g><rect class="l" width="36.579" height="11.65" rx="1.051" transform="matrix(-0.235, -0.972, 0.972, -0.235, 11.525, 50.442)"/><line class="r" y1="2.553" x2="10.557" transform="translate(26.068 35.405)"/><line class="r" x2="2.553" y2="10.557" transform="translate(30.07 31.403)"/><line class="r" x2="9.27" y2="5.66" transform="translate(45.161 29.391)"/><line class="r" x1="5.66" y2="9.27" transform="translate(46.966 27.585)"/><line class="r" x2="2.553" y2="10.557" transform="translate(25.57 12.793)"/><line class="r" x2="2.553" y2="10.557" transform="translate(44.019 8.331)"/><path class="q" d="M277.036,164.763a1.4,1.4,0,1,1-1.03,1.689A1.4,1.4,0,0,1,277.036,164.763Z" transform="translate(-235.416 -151.704)"/><path class="q" d="M283.074,163.3a1.4,1.4,0,1,1-1.03,1.688A1.4,1.4,0,0,1,283.074,163.3Z" transform="translate(-234.728 -151.87)"/></g><path class="a" d="M279.672,219.553l-1.2-3.93a10.32,10.32,0,0,0-4.4-5.75c-3.081-1.923-7.371-4.685-8.338-5.747-1.545-1.7-9.28-18.039-8.469-18.687s2.108-1.766,4.791.48c1.665,1.395,4.152,5.083,6.033,7.931a6.116,6.116,0,0,0,6.544,2.574l12.77-3.086c4.193,1.329,5.671,10.469,5.487,12.676s1.706,9.834,1.706,9.834" transform="translate(-237.555 -149.441)"/><path class="e" d="M275.154,215.075l17.81-4.332S318.137,269.2,311,294.291L280.17,283.259C282.205,266.432,275.154,215.075,275.154,215.075Z" transform="translate(-235.509 -146.459)"/><path class="e" d="M240.145,316.844s30-30.832,44.586-43.835L314.986,287.2c-7.142,15.742-45.453,52.105-45.453,52.105Z" transform="translate(-239.498 -139.363)"/></g><g transform="translate(282.423 187.392)"><g transform="translate(60.13)"><rect class="b" width="58.483" height="78.813" rx="1.531" transform="matrix(0.254, -0.967, 0.967, 0.254, 0, 56.571)"/><rect class="q" width="53.841" height="72.558" rx="1.677" transform="matrix(0.254, -0.967, 0.967, 0.254, 2.267, 54.766)"/><path class="s" d="M384.828,205.325l3.83,14.273-1.055,9.136-4.178,15.936a1.83,1.83,0,0,1-2.232,1.306L314.544,228.5a1.829,1.829,0,0,1-1.3-2.234l12.727-48.543a1.829,1.829,0,0,1,2.233-1.3l35.046,9.188,4.246,1.639Z" transform="translate(-310.508 -173.271)"/><rect class="b" width="24.368" height="5.431" rx="0.521" transform="matrix(0.254, -0.967, 0.967, 0.254, 2.822, 39.677)"/><path class="t" d="M319.441,195.431l-2.062,7.865-2.034-.53a4.065,4.065,0,0,1-2.906-4.965h0a4.063,4.063,0,0,1,4.957-2.9Z" transform="translate(-310.608 -171.173)"/></g><path class="a" d="M336.924,257.221l.805-4.029a10.319,10.319,0,0,0-1.155-7.15c-1.8-3.154-4.273-7.618-4.621-9.011-.557-2.228.371-20.284,1.392-20.469s2.692-.557,3.991,2.691c.808,2.017,1.249,6.444,1.556,9.844a6.117,6.117,0,0,0,4.545,5.366l12.709,3.333c3.063,3.156.035,11.906-1.172,13.762s-3.157,9.469-3.157,9.469" transform="translate(-248.258 -168.703)"/><path class="p" d="M337.893,251.285l17.782,4.445s-3.568,71.516-27.009,88.25l-17.547-29.854C320.746,300.173,337.893,251.285,337.893,251.285Z" transform="translate(-250.613 -164.733)"/><path class="p" d="M256.8,317.854s41.073-8.134,60.506-10.157l17.547,29.854c-15,8.6-67.338,15.7-67.338,15.7Z" transform="translate(-256.803 -158.304)"/></g><g transform="translate(420.222 388.883)"><g transform="translate(26.211)"><rect class="u" width="32.589" height="60.637" transform="translate(35.875 63.663) rotate(180)"/><rect class="v" width="18.274" height="79.793" transform="translate(60.949 79.793) rotate(180)"/><path class="w" d="M446.709,354.465H436.357L425.7,393.051H404.034v41.207h42.675Z" transform="translate(-404.034 -354.465)"/><circle class="x" cx="5.685" cy="5.685" r="5.685" transform="translate(46.127 9.178)"/><rect class="x" width="9.746" height="34.67" transform="translate(56.685 58.485) rotate(180)"/><rect class="x" width="9.746" height="3.558" transform="translate(56.685 63.663) rotate(180)"/><rect class="x" width="9.746" height="3.558" transform="translate(56.685 68.688) rotate(180)"/></g><rect class="u" width="32.589" height="60.637" transform="translate(35.875 63.663) rotate(180)"/><rect class="y" width="18.274" height="79.793" transform="translate(60.949 79.793) rotate(180)"/><path class="z" d="M423.18,354.465H412.828l-10.66,38.586H380.505v41.207H423.18Z" transform="translate(-380.505 -354.465)"/><path class="u" d="M421.913,368.39A5.686,5.686,0,1,0,427.6,362.7,5.685,5.685,0,0,0,421.913,368.39Z" transform="translate(-375.786 -353.526)"/><rect class="u" width="9.746" height="34.67" transform="translate(56.685 58.485) rotate(180)"/><rect class="u" width="9.746" height="3.558" transform="translate(56.685 63.663) rotate(180)"/><rect class="u" width="9.746" height="3.558" transform="translate(56.685 68.688) rotate(180)"/></g><g transform="translate(373.345 432.18)"><rect class="q" width="30.212" height="36.496" transform="translate(42.247 36.496) rotate(180)"/><rect class="aa" width="7.039" height="36.496" transform="translate(19.074 36.496) rotate(180)"/><g transform="translate(0 3.297)"><path class="aa" d="M350.644,425.1l1.429-1.823c-.113-.087-10.895-8.609-11.31-15.9-.184-3.282.59-5.823,2.242-7.344a5.349,5.349,0,0,1,4.27-1.38c2.428.341,5.171,2.821,5.2,2.845l1.562-1.705c-.133-.124-3.294-2.99-6.44-3.43a7.625,7.625,0,0,0-6.157,1.968c-1.522,1.4-3.273,4.128-2.983,9.179C338.929,415.843,350.169,424.721,350.644,425.1Z" transform="translate(-338.423 -396.292)"/></g></g><g transform="translate(149.633 240.292)"><path class="a" d="M350.86,308.679s-2.779,2.219-3.909,3-5.148,2.159-8.687,5.338,10.017,16.615,10.017,16.615l5.253-8.725Z" transform="translate(-114.797 -211.092)"/><path class="a" d="M321.782,343.049s7.018-9.177,7.917-10.437,1.435-13.84,2.4-16.195c.989-2.416,5.008-8.127,7.077-10.917s5.219-6.868,6.119-5.517.78,4.108-.48,7.708-3.809,7.753-3.9,9.733,15,9.185,13.294,14.222-11.176,8.552-13.156,11.341-6.856,10.319-6.856,10.319Z" transform="translate(-116.608 -212.113)"/><path class="b" d="M361.892,285.5l-8.54,51.523a1.083,1.083,0,0,1-1.409.85l-14.685-4.889a1.082,1.082,0,0,1-.725-1.2L344.957,281a1.078,1.078,0,0,1,.723-.849l1.173-.393a1.079,1.079,0,0,1,.686,0l13.628,4.545A1.08,1.08,0,0,1,361.892,285.5Z" transform="translate(-114.929 -214.394)"/><path class="ab" d="M350.454,331.331l-12.424-4.144a.444.444,0,0,1-.3-.495l7.2-43.158a.445.445,0,0,1,.579-.348l12.425,4.143a.444.444,0,0,1,.3.495l-7.2,43.158A.445.445,0,0,1,350.454,331.331Z" transform="translate(-114.792 -213.999)"/><path class="ac" d="M353.264,284.787l-.108.651-5.092-1.7.108-.654Z" transform="translate(-113.613 -214.008)"/><path class="ac" d="M345.8,327.775c-.231.721-1.336,1.01-2.469.647s-1.862-1.241-1.632-1.962,1.336-1.01,2.469-.647S346.029,327.054,345.8,327.775Z" transform="translate(-114.344 -209.157)"/><path class="ad" d="M345.339,281.047,358.05,285.3a.474.474,0,0,1,.318.528L353.12,317.5" transform="translate(-113.924 -214.241)"/><path class="ae" d="M323.854,335.9l14.606,6.424-2.477,3.753Z" transform="translate(-116.372 -207.989)"/><path class="a" d="M337.022,306.13s4.992-7.017,5.637-6.958,1.853,1.978,1.22,5.717-5.275,11.165-5.275,11.165Z" transform="translate(-114.872 -212.175)"/><path class="af" d="M279.409,416.517a176.945,176.945,0,0,1-12.979-12.078c-9.084-9.263-17.255-19.1-22.195-25.27-3.088-3.86-4.9-6.306-4.9-6.306l27.824-52.969s32.94,74.154,35.031,81.077C304.977,410.21,299.573,433.248,279.409,416.517Z" transform="translate(-126.005 -209.814)"/><path class="af" d="M266.972,406.38s19.657,22.576,28.326,14.346,49.645-74.688,49.645-74.688-9-6.335-16.014-10.976l-43.912,50.382Z" transform="translate(-122.855 -208.085)"/><path class="ag" d="M265.928,400.645c-9.084-9.263-17.255-19.1-22.195-25.27l9.025-18.026,7.742-4.156S263.245,386.371,265.928,400.645Z" transform="translate(-125.503 -206.019)"/><path class="af" d="M262.694,414.773c-1.521,10.035-2.756,19.523-3.539,26.019H182.643c-.76-5.7-1.674-14.06-2.612-23.751-.583-6.02-1.176-12.563-1.758-19.3-2.862-33.049-5.356-70.693-4.251-74.79,1.983-7.339,40.968-16.839,40.968-16.839l27.313.808s31.671,7.719,32.858,16.031S265.46,396.581,262.694,414.773Z" transform="translate(-133.478 -211.384)"/><path class="ag" d="M190.386,376.207s-4.762,19.356-10.818,32.846c-.583-6.02-1.176-12.563-1.758-19.3Z" transform="translate(-133.015 -203.396)"/><path class="af" d="M178.164,320.832s-42.149,86.084-38.883,95.88,29.632,4.44,36.461-.9S194.8,382.571,194.8,382.571,207.06,314.5,178.164,320.832Z" transform="translate(-137.427 -209.754)"/><path class="ah" d="M233.346,427.357s19.828.207,20.57.3a1.791,1.791,0,0,0,1.436-2.976c-1.337-2.079-6.482-2.079-8.363-2.227s-2.721-1.386-6.136-1.88Z" transform="translate(-126.687 -198.34)"/><path class="a" d="M221.375,413.725s7.916,1.306,11.281,1.9,12.89-2.625,17.441-3.266,23.058,15.314,21.82,15.809a10.475,10.475,0,0,1-8.634-1.262c-3.512-2.276-10.094-6.087-11.429-6.037s-7.57,2.77-9.945,4.3-5.2,3.365-8.758,3.414-10.985-.075-18.6-.717Z" transform="translate(-128.829 -199.279)"/><path class="ae" d="M222.283,412.94l4.738,15.535h-6.358Z" transform="translate(-128.132 -199.21)"/><path class="af" d="M140.162,400.881s-7.791,24.5,3.787,27.469,88.123,1.83,88.123,1.83.469-10.939.469-17c0,0-31.069-7.073-42.18-9.326l-22.785-4.626Z" transform="translate(-137.598 -200.772)"/><path class="a" d="M228.976,335.113c-15.07,1.341-21.85-25.639-21.85-25.639l.784-.2a4.2,4.2,0,0,0,3.124-3.634,60.08,60.08,0,0,0-.2-17.065c-1.2-7.184,29.058,1.947,29.058,1.947l-.487,8.515-.392,6.863a4.211,4.211,0,0,0,3.111,4.3S244.046,333.783,228.976,335.113Z" transform="translate(-129.675 -213.697)"/><path class="ae" d="M240.734,309.546c-17.3-3.277-21.423-18-21.423-18l11.222,3.065,7.481,3.776-.392,6.863A4.211,4.211,0,0,0,240.734,309.546Z" transform="translate(-128.286 -213.044)"/><g transform="translate(63.251)"><path class="b" d="M255.942,249.587s1.847,26.547-4.98,25.161l-.792-22.589Z" transform="translate(-188.021 -217.826)"/><line class="ai" x1="6.225" y2="0.29" transform="translate(63.313 54.321)"/><path class="a" d="M257.693,279.126c-.085,1.72-.206,3.44-.348,5.14-.9,10.563-2.894,20.306-7.057,23.192-5.741,3.975-15.927,1.288-23.8-1.86-9.142-3.665-14.649-11.417-19.038-20.232-9.275-18.624-6.409-33.874-6.409-33.874h56.587S258.445,265.182,257.693,279.126Z" transform="translate(-193.667 -217.609)"/><path class="aj" d="M230.785,278.983c0,1.718-2.672,3.111-5.971,3.111s-5.971-1.394-5.971-3.111,2.673-3.11,5.971-3.11S230.785,277.265,230.785,278.983Z" transform="translate(-191.59 -214.83)"/><path class="aj" d="M252.14,276.3c-.085,1.72-.206,3.44-.348,5.14-1.485-.564-2.443-1.475-2.443-2.509C249.35,277.831,250.468,276.854,252.14,276.3Z" transform="translate(-188.114 -214.782)"/><path class="b" d="M219.272,258.426s1.75,24.829-1.684,26.055-5.641-7.728-7.726-7.6-7.971-.369-7.971-.369-9.2-13.981-7.236-25.018,11.288-12.141,15.265-10.8c12.747-20.637,46.115-.693,49.122-19.615,13.124,10.087,11.836,21.965,6.344,29.313a17.854,17.854,0,0,1-6.991,5.643S231.045,255.238,219.272,258.426Z" transform="translate(-194.378 -221.075)"/></g><g transform="translate(75.851 45.12)"><circle class="ak" cx="9.201" cy="9.201" r="9.201" transform="translate(16.684)"/><circle class="ak" cx="9.201" cy="9.201" r="9.201" transform="translate(38.536)"/><path class="ak" d="M237.186,269.9s1.336-1.353,3.45,0" transform="translate(-202.1 -260.699)"/><line class="ai" y1="0.58" x2="16.684" transform="translate(0 9.201)"/></g><path class="a" d="M211.676,274.273a7.4,7.4,0,0,0-7.783-5.052c-4.625.294-5.526,5.265-4.5,9.7s6,12.707,13.84,9.3Z" transform="translate(-130.599 -215.591)"/><path class="al" d="M178.568,319.75s17.516-4.4,23.75,13.557c2.636,7.593.285,15.618-2.128,22.86-2.567,7.706-5.294,14.4-5.294,14.4" transform="translate(-132.929 -209.884)"/><path class="al" d="M264.982,327.508s-2.257,19.563-3.59,28.611" transform="translate(-123.491 -208.946)"/><g transform="translate(231.242 97.107)"><path class="a" d="M352.709,326.127s-5.8,4.244-6.488,5.9.293,2.586,2.049,2.342,7.074-4.049,7.658-4.634a2.531,2.531,0,0,0,.342-3.61C355.643,325.364,353.891,325.234,352.709,326.127Z" transform="translate(-345.09 -306.282)"/><path class="d" d="M346.221,331.966c-.683,1.659.293,2.586,2.049,2.342s7.074-4.049,7.658-4.634a2.531,2.531,0,0,0,.342-3.61" transform="translate(-345.09 -306.218)"/><path class="a" d="M353.029,320.4s-6.79,4.964-7.588,6.9.342,3.024,2.4,2.739,8.273-4.735,8.958-5.421a3.021,3.021,0,0,0,.4-4.222C356.338,319.343,354.411,319.354,353.029,320.4Z" transform="translate(-345.184 -306.953)"/><path class="d" d="M345.44,327.22c-.8,1.941.342,3.024,2.4,2.739s8.273-4.735,8.958-5.421a3.021,3.021,0,0,0,.4-4.222" transform="translate(-345.184 -306.873)"/><path class="a" d="M353.416,314.624s-6.79,4.964-7.588,6.9.342,3.024,2.4,2.739,8.273-4.735,8.958-5.421a3.049,3.049,0,0,0,.4-4.222C356.862,313.719,354.8,313.58,353.416,314.624Z" transform="translate(-345.14 -307.605)"/><path class="d" d="M345.827,321.452c-.8,1.941.342,3.024,2.4,2.739s8.273-4.735,8.958-5.421a3.049,3.049,0,0,0,.4-4.222" transform="translate(-345.14 -307.53)"/><path class="a" d="M354.055,308.991s-6.79,4.964-7.588,6.9.342,3.024,2.4,2.739,8.273-4.735,8.958-5.421a3.019,3.019,0,0,0,.4-4.222C357.544,308.055,355.439,307.947,354.055,308.991Z" transform="translate(-345.067 -308.248)"/><path class="d" d="M346.467,315.818c-.8,1.941.342,3.024,2.4,2.739s8.273-4.735,8.958-5.421a3.019,3.019,0,0,0,.4-4.222" transform="translate(-345.067 -308.172)"/></g><path class="al" d="M171.741,400.7s51.765,11.2,56.91,12.317" transform="translate(-133.707 -200.605)"/><path class="al" d="M228.927,329.67s1.411,18.684,1.052,29.481" transform="translate(-127.19 -208.7)"/><path class="am" d="M227.69,336.953a1.709,1.709,0,1,1-1.709-1.709A1.709,1.709,0,0,1,227.69,336.953Z" transform="translate(-127.721 -208.064)"/><path class="am" d="M228.229,348.691a1.71,1.71,0,1,1-1.71-1.71A1.711,1.711,0,0,1,228.229,348.691Z" transform="translate(-127.66 -206.727)"/><path class="b" d="M207.717,241.39s-1.175-3.642-8.222-4.582c0,0,5.462-2.378,9.513,1.292,0,0-1.233-8.1,2.467-10.629,0,0-.881,7.047,1.468,11.57Z" transform="translate(-130.544 -220.346)"/><g transform="translate(73.355 47.842)"><g transform="translate(23.501 0.41)"><path class="b" d="M233.908,267.389a.4.4,0,0,1-.3-.136,4.7,4.7,0,0,0-3.665-1.6,7.946,7.946,0,0,0-4.723,1.625.4.4,0,1,1-.554-.57,7.39,7.39,0,0,1,5.293-2.315,5.847,5.847,0,0,1,4.248,2.338.4.4,0,0,1-.3.659Z" transform="translate(-224.546 -264.391)"/></g><g transform="translate(42.941)"><path class="b" d="M251.359,267.021a.393.393,0,0,1-.3-.136,4.71,4.71,0,0,0-3.665-1.6,7.939,7.939,0,0,0-4.723,1.626.4.4,0,0,1-.554-.571,7.392,7.392,0,0,1,5.294-2.315,5.846,5.846,0,0,1,4.246,2.338.4.4,0,0,1-.3.659Z" transform="translate(-241.997 -264.023)"/></g><ellipse class="an" cx="1.488" cy="1.958" rx="1.488" ry="1.958" transform="translate(29.09 6.148)"/><path class="an" d="M250.183,271.157A1.544,1.544,0,1,1,248.7,269.2,1.772,1.772,0,0,1,250.183,271.157Z" transform="translate(-198.462 -263.433)"/><path class="ao" d="M239.451,284.982s5.1-.53,4.567-4.881C244.018,280.1,246.4,285.778,239.451,284.982Z" transform="translate(-199.346 -262.191)"/><path class="ap" d="M233.307,291.039s.96.075,2.3.223l2.274.208c.409.052.834.041,1.26.079s.857.023,1.288.045c.427-.014.858,0,1.276-.022.412-.051.839-.007,1.228-.085s.791-.065,1.146-.155.724-.1,1.03-.2.613-.16.884-.222l.678-.229c.387-.125.628-.188.628-.188s-.141.187-.423.5a6.825,6.825,0,0,1-.536.546c-.231.178-.5.381-.8.583a5.738,5.738,0,0,1-1.046.554,6.471,6.471,0,0,1-1.249.439,9.075,9.075,0,0,1-1.387.276c-.477.071-.961.06-1.448.085-.481-.032-.967-.039-1.435-.111a12.4,12.4,0,0,1-1.358-.263,9.34,9.34,0,0,1-1.233-.369,9.847,9.847,0,0,1-1.064-.433A8.532,8.532,0,0,1,233.307,291.039Z" transform="translate(-200.046 -261.007)"/><path class="ao" d="M203.449,274.525s6.049-.763,5.638,7.341C209.087,281.866,211.514,272.607,203.449,274.525Z" transform="translate(-203.449 -262.856)"/></g></g><g transform="translate(31.99 469.581)"><line class="aq" x2="454.312" transform="translate(37.501)"/><line class="aq" x2="24.802"/><line class="aq" x2="113.698" transform="translate(110.096 12.969)"/><line class="aq" x2="113.698" transform="translate(267.841 9.627)"/></g><g transform="translate(200.716 383.085)"><rect class="ar" width="55.712" height="4.723" rx="0.586" transform="translate(0 80.868)"/><path class="ar" d="M343.823,434.851H230.371a.645.645,0,0,1-.609-.854l28.917-84.3a.644.644,0,0,1,.609-.436H372.741a.644.644,0,0,1,.609.853l-28.916,84.3A.645.645,0,0,1,343.823,434.851Z" transform="translate(-178.182 -349.26)"/><path class="b" d="M346.987,434.851H233.534a.645.645,0,0,1-.609-.854l28.917-84.3a.644.644,0,0,1,.609-.436H375.9a.645.645,0,0,1,.611.853l-28.917,84.3A.644.644,0,0,1,346.987,434.851Z" transform="translate(-177.822 -349.26)"/><ellipse class="ar" cx="12.999" cy="8.808" rx="12.999" ry="8.808" transform="translate(116.356 33.987)"/></g><path class="as" d="M384.042,208.21c-5.168-19.96-25.918-23.548-25.918-23.548a21.074,21.074,0,0,1,8.471,6.465c8.242,11.6,3.017,22.123,3.017,22.123l.126-.021a11.174,11.174,0,0,1,12.875,11.7,39.1,39.1,0,0,1-.456,4.1l1.786-6.811A27.8,27.8,0,0,0,384.042,208.21Z" transform="translate(37.166 15.067)"/><g transform="translate(212.556 62.724)"><circle class="l" cx="37.782" cy="37.782" r="37.782" transform="translate(0 53.432) rotate(-45)"/><circle class="at" cx="33.261" cy="33.261" r="33.261" transform="translate(20.171 20.171)"/><g transform="translate(21.477 21.476)"><g transform="translate(30.463 9.329)"><path class="q" d="M242.2,113.444a1.492,1.492,0,0,1-1.492-1.492V90.819a1.492,1.492,0,1,1,2.983,0v21.134A1.492,1.492,0,0,1,242.2,113.444Z" transform="translate(-240.711 -89.327)"/></g><g transform="translate(31.209)"><path class="q" d="M242.126,86.29a.746.746,0,0,1-.746-.746V81.7a.746.746,0,1,1,1.492,0v3.845A.746.746,0,0,1,242.126,86.29Z" transform="translate(-241.38 -80.952)"/></g><g transform="translate(50.558 9.142)"><path class="q" d="M259.5,93.37a.746.746,0,0,1-.527-1.273l2.719-2.719a.746.746,0,1,1,1.055,1.054l-2.719,2.719A.744.744,0,0,1,259.5,93.37Z" transform="translate(-258.75 -89.159)"/></g><g transform="translate(58.573 31.21)"><path class="q" d="M270.536,110.461H266.69a.746.746,0,0,1,0-1.492h3.845a.746.746,0,0,1,0,1.492Z" transform="translate(-265.945 -108.969)"/></g><g transform="translate(50.558 50.559)"><path class="q" d="M262.214,130.55a.747.747,0,0,1-.527-.218l-2.719-2.72a.746.746,0,0,1,1.055-1.054l2.719,2.719a.746.746,0,0,1-.528,1.273Z" transform="translate(-258.75 -126.339)"/></g><g transform="translate(31.209 58.573)"><path class="q" d="M242.126,138.871a.746.746,0,0,1-.746-.746v-3.845a.746.746,0,1,1,1.492,0v3.845A.746.746,0,0,1,242.126,138.871Z" transform="translate(-241.38 -133.533)"/></g><g transform="translate(9.141 50.559)"><path class="q" d="M222.315,130.55a.746.746,0,0,1-.527-1.273l2.719-2.719a.746.746,0,0,1,1.055,1.054l-2.72,2.72A.743.743,0,0,1,222.315,130.55Z" transform="translate(-221.569 -126.339)"/></g><g transform="translate(0 31.21)"><path class="q" d="M217.956,110.461h-3.846a.746.746,0,0,1,0-1.492h3.846a.746.746,0,0,1,0,1.492Z" transform="translate(-213.364 -108.969)"/></g><g transform="translate(9.141 9.142)"><path class="q" d="M225.036,93.37a.744.744,0,0,1-.528-.219l-2.719-2.719a.745.745,0,1,1,1.054-1.054l2.72,2.719a.746.746,0,0,1-.527,1.273Z" transform="translate(-221.569 -89.159)"/></g></g></g><g transform="translate(63.027 371.906)"><rect class="q" width="8.944" height="40.834" transform="translate(14.243 17.299)"/><rect class="q" width="8.944" height="34.286" transform="translate(28.617 23.847)"/><rect class="q" width="8.944" height="28.696" transform="translate(0 29.437)"/><rect class="q" width="8.944" height="46.264" transform="translate(42.99 11.869)"/><path class="q" d="M64.061,364.57a1.557,1.557,0,0,0,1.557-1.557,1.575,1.575,0,0,0-.051-.379l12.093-11.662a1.535,1.535,0,0,0,1.536-.195l11.9,7.106a1.553,1.553,0,0,0,3.1-.16,1.527,1.527,0,0,0-.06-.407L106.72,342.31a1.574,1.574,0,0,0,.291.029,1.568,1.568,0,1,0-1.451-1l-12.5,14.9a1.49,1.49,0,0,0-1.358.248l-11.9-7.106a1.553,1.553,0,0,0-3.1.163,1.525,1.525,0,0,0,.023.227l-12.2,11.769a1.554,1.554,0,1,0-.465,3.037Z" transform="translate(-59.55 -339.225)"/></g><g transform="translate(200.421 195.168)"><path class="l" d="M215.788,209.722a18.2,18.2,0,1,0-4.8,4.386l8.528,4.739Z" transform="translate(-183.19 -180.567)"/><g transform="translate(5.228 16.105)"><path class="q" d="M193.954,198.06a3.036,3.036,0,1,1-3.036-3.036A3.036,3.036,0,0,1,193.954,198.06Z" transform="translate(-187.883 -195.024)"/><path class="q" d="M202.841,198.06a3.036,3.036,0,1,1-3.037-3.036A3.036,3.036,0,0,1,202.841,198.06Z" transform="translate(-186.87 -195.024)"/><path class="q" d="M211.727,198.06a3.036,3.036,0,1,1-3.036-3.036A3.036,3.036,0,0,1,211.727,198.06Z" transform="translate(-185.858 -195.024)"/></g></g><g transform="translate(414.471 283.43)"><circle class="q" cx="17.624" cy="17.624" r="17.624"/><path class="au" d="M397.519,272.282a4.815,4.815,0,0,0-3.561,1.584l-3.836-2.7a3.253,3.253,0,1,0-.712,1.013l3.842,2.7a4.71,4.71,0,0,0,.517,5.273l-1.969,2.061a3.267,3.267,0,1,0,.893.855l1.965-2.056a4.837,4.837,0,1,0,2.862-8.732Z" transform="translate(-374.365 -259.025)"/></g><g transform="translate(89 116.601)"><path class="q" d="M369.1,132.757v-6.492h-2.718a16.992,16.992,0,0,0-2.607-6.312l1.916-1.916-4.59-4.591-1.916,1.916a16.968,16.968,0,0,0-6.313-2.61v-2.715h-6.491v2.715a16.955,16.955,0,0,0-6.314,2.61l-1.915-1.916-4.59,4.591,1.915,1.915a16.976,16.976,0,0,0-2.607,6.313h-2.717v6.492h2.717a16.961,16.961,0,0,0,2.609,6.312l-1.917,1.916,4.59,4.591,1.917-1.918a16.956,16.956,0,0,0,6.312,2.606v2.721h6.491v-2.721a16.958,16.958,0,0,0,6.311-2.606l1.918,1.918,4.59-4.591-1.917-1.917a16.961,16.961,0,0,0,2.607-6.311Zm-19.473,7.6a10.843,10.843,0,1,1,10.838-10.848A10.841,10.841,0,0,1,349.628,140.356Z" transform="translate(-55.021 -110.038)"/><path class="av" d="M83.168,396.293v17.176a3.139,3.139,0,0,0,3.139,3.138h50.319" transform="translate(-83.168 -77.416)"/><path class="av" d="M370.138,126.339h59.237a4.124,4.124,0,0,1,4.124,4.124V288.508a4.125,4.125,0,0,1-4.124,4.125H414.531" transform="translate(-50.465 -108.18)"/></g><g transform="translate(479.864 201.134)"><path class="m" d="M466.919,193.011a18.365,18.365,0,1,0,2.447,18.453v-.011a18.388,18.388,0,0,0-2.447-18.442Zm-14.5,22.186a10.894,10.894,0,0,1-9.1-4.907,10.783,10.783,0,0,1-1.795-5.992,10.9,10.9,0,1,1,10.9,10.9Z" transform="translate(-434.046 -185.923)"/><path class="q" d="M465.039,193.011l-5.981,4.5a10.846,10.846,0,0,0-8.517-4.1v-7.487A18.344,18.344,0,0,1,465.039,193.011Z" transform="translate(-432.166 -185.923)"/><path class="m" d="M469.046,209.151v.011a18.394,18.394,0,0,1-32.186,3.112L443,207.988a10.9,10.9,0,0,0,19.195-1.871Z" transform="translate(-433.725 -183.622)"/></g><g transform="translate(31.99 52.445)"><g transform="translate(297.9 91.628)"><line class="aw" y2="5.691" transform="translate(2.846)"/><line class="aw" x1="5.691" transform="translate(0 2.846)"/></g><g transform="translate(405.517 25.194)"><line class="aw" y2="5.691" transform="translate(2.846)"/><line class="aw" x1="5.691" transform="translate(0 2.846)"/></g><g transform="translate(161.11)"><line class="aw" y2="5.691" transform="translate(2.846)"/><line class="aw" x1="5.691" transform="translate(0 2.846)"/></g><g transform="translate(398.408 105.92)"><line class="aw" y2="5.691" transform="translate(2.846)"/><line class="aw" x1="5.691" transform="translate(0 2.846)"/></g><g transform="translate(385.386 299.378)"><line class="aw" y2="5.691" transform="translate(2.846)"/><line class="aw" x1="5.691" transform="translate(0 2.846)"/></g><g transform="translate(54.165 300.396)"><line class="aw" y2="5.691" transform="translate(2.846)"/><line class="aw" x1="5.691" transform="translate(0 2.846)"/></g><g transform="translate(0 268.155)"><line class="aw" y2="5.691" transform="translate(2.846)"/><line class="aw" x1="5.691" transform="translate(0 2.846)"/></g><g transform="translate(0.228 107.141)"><line class="aw" y2="5.691" transform="translate(2.846 0)"/><line class="aw" x1="5.691" transform="translate(0 2.846)"/></g><g transform="translate(11.323 28.04)"><path class="q" d="M129.5,83.728a3.716,3.716,0,1,1-3.716-3.715A3.717,3.717,0,0,1,129.5,83.728Z" transform="translate(-33.048 -77.344)"/><path class="q" d="M49.586,234.1a3.716,3.716,0,1,1-3.716-3.715A3.716,3.716,0,0,1,49.586,234.1Z" transform="translate(-42.155 -60.208)"/><circle class="q" cx="3.716" cy="3.716" r="3.716" transform="translate(34.912 257.394)"/><path class="q" d="M216.287,145.38a3.716,3.716,0,1,1-3.715-3.716A3.715,3.715,0,0,1,216.287,145.38Z" transform="translate(-23.158 -70.318)"/><path class="q" d="M135.873,128.609a3.716,3.716,0,1,1-3.716-3.716A3.716,3.716,0,0,1,135.873,128.609Z" transform="translate(-32.322 -72.229)"/><path class="q" d="M454.637,160.448a3.716,3.716,0,1,1-3.716-3.715A3.717,3.717,0,0,1,454.637,160.448Z" transform="translate(4.004 -68.601)"/><path class="q" d="M477.586,256.846a3.716,3.716,0,1,1-3.716-3.715A3.717,3.717,0,0,1,477.586,256.846Z" transform="translate(6.62 -57.615)"/><circle class="q" cx="3.716" cy="3.716" r="3.716" transform="translate(412.783 266.752)"/><circle class="q" cx="3.716" cy="3.716" r="3.716" transform="translate(298.474)"/></g></g></g></svg>