<svg xmlns="http://www.w3.org/2000/svg" width="375.976" height="306.865" viewBox="0 0 375.976 306.865"><defs><style>.a{fill:#cacfdd;}.b{fill:#23234b;}.c{fill:#4c71ac;}.d{fill:#b6c1db;}.e{fill:#dc5e7c;}.f{fill:#e5e5e5;}.g{fill:#c92737;}.h{fill:#4f539e;}.i{fill:#000001;}.j{fill:#fff;}.k{fill:#f4d8b3;}.l{fill:#cbc9ca;}.m{fill:#c8576c;}.n{fill:#82122a;}.o{fill:#f0eeef;}.p{fill:#e8c581;}.q{fill:#008cde;}.r{fill:#ddbe7b;}.s{fill:#b58767;}.t{fill:#3e65e5;}</style></defs><g transform="translate(-238.757 -262.35)"><g transform="translate(423.355 496.432)"><g transform="translate(12.887 34.667)"><rect class="a" width="159.027" height="17.24" transform="translate(0.473 0.473)"/><path class="b" d="M815.8,848.107H655.823V829.921H815.8ZM656.77,847.16H814.85V830.868H656.77Z" transform="translate(-655.823 -829.921)"/></g><g transform="translate(0 0)"><rect class="c" width="153.339" height="16.197" transform="translate(0.473 0.473)"/><path class="b" d="M782.894,773.851H628.608V756.707H782.894ZM629.555,772.9H781.947v-15.25H629.555Z" transform="translate(-628.608 -756.707)"/><g transform="translate(0 2.819)"><rect class="a" width="153.339" height="10.56" transform="translate(0.473 0.473)"/><path class="b" d="M782.894,774.167H628.608V762.66H782.894Zm-153.339-.947H781.947v-9.613H629.555Z" transform="translate(-628.608 -762.66)"/></g><g transform="translate(0 2.819)"><rect class="a" width="153.339" height="2.775" transform="translate(0.473 0.473)"/><path class="b" d="M782.894,766.382H628.608V762.66H782.894Zm-153.339-.947H781.947v-1.828H629.555Z" transform="translate(-628.608 -762.66)"/></g></g><g transform="translate(23.395 16.197)"><rect class="a" width="167.037" height="18.47" transform="translate(0.474 0.474)"/><path class="b" d="M846,810.331H678.015V790.913H846Zm-167.037-.947h166.09V791.86H678.962Z" transform="translate(-678.015 -790.913)"/><g transform="translate(63.52 2.576)"><rect class="a" width="103.518" height="13.318" transform="translate(0.474 0.474)"/><path class="b" d="M916.627,810.618H812.162V796.353H916.627Zm-103.518-.947H915.68V797.3H813.109Z" transform="translate(-812.162 -796.353)"/></g></g></g><g transform="translate(238.757 431.124)"><g transform="translate(13.161 106.106)"><rect class="c" width="211.344" height="11.108" transform="translate(0.474 0.474)"/><path class="b" d="M478.844,854.925H266.553V842.869H478.844ZM267.5,853.978H477.9V843.816H267.5Z" transform="translate(-266.553 -842.869)"/></g><g transform="translate(55.869 68.727)"><rect class="d" width="179.998" height="18.503" transform="translate(180.472 18.976) rotate(180)"/><path class="b" d="M537.693,783.377H356.748v-19.45H537.693Zm-180-.947H536.746V764.874H357.695Z" transform="translate(-356.748 -763.927)"/></g><g transform="translate(49.378)"><rect class="d" width="195.256" height="12.834" transform="translate(0.473 0.473)"/><path class="b" d="M539.241,632.564h-196.2V618.783h196.2Zm-195.256-.947H538.294V619.73H343.985Z" transform="translate(-343.038 -618.783)"/></g><rect class="b" width="197.147" height="20.846" transform="translate(197.149 69.258) rotate(179.997)"/><g transform="translate(0.088 50.021)"><rect class="a" width="196" height="16.705" transform="translate(196.474 17.179) rotate(180)"/><path class="b" d="M435.89,742.075H238.943V724.423H435.89Zm-196-.947H434.943V725.37H239.89Z" transform="translate(-238.943 -724.423)"/></g><g transform="translate(0.088 50.021)"><rect class="a" width="196" height="4.39" transform="translate(196.474 4.864) rotate(180)"/><path class="b" d="M435.89,729.76H238.943v-5.337H435.89Zm-196-.947H434.943V725.37H239.89Z" transform="translate(-238.943 -724.423)"/></g><g transform="translate(66.534 26.058)"><path class="e" d="M379.27,696.173h168.9V673.9L379.3,673.815Z" transform="translate(-379.27 -673.815)"/><g transform="translate(0.001 2.348)"><rect class="d" width="167.959" height="16.802" transform="translate(168.433 17.275) rotate(180)"/><path class="b" d="M548.178,696.523H379.272V678.774H548.178Zm-167.959-.947H547.231V679.721H380.219Z" transform="translate(-379.272 -678.774)"/></g><g transform="translate(0.001 2.348)"><rect class="d" width="167.959" height="4.167" transform="translate(0.473 0.474)"/><path class="b" d="M548.178,683.888H379.272v-5.114H548.178Zm-167.959-.947H547.231v-3.22H380.219Z" transform="translate(-379.272 -678.774)"/></g></g><g transform="translate(40.293 87.065)"><rect class="a" width="207.11" height="19.015" transform="translate(207.584 19.488) rotate(180)"/><path class="b" d="M531.911,822.618H323.853V802.656H531.911ZM324.8,821.671H530.964V803.6H324.8Z" transform="translate(-323.853 -802.656)"/><rect class="d" width="96.57" height="5.821" transform="translate(97.043 9.343) rotate(180)"/><g transform="translate(0 3.049)"><path class="b" d="M421.37,822.959H323.853V809.095H421.37Zm-96.57-.947h95.623v-11.97H324.8Z" transform="translate(-323.853 -809.095)"/></g></g><g transform="translate(32.392 13.307)"><rect class="b" width="182.226" height="12.751"/><g transform="translate(0.042 1.316)"><rect class="a" width="110.191" height="9.158" transform="translate(110.664 9.632) rotate(180)"/><path class="b" d="M418.392,659.77H307.255V649.665H418.392Zm-110.19-.947H417.445v-8.211H308.2Z" transform="translate(-307.255 -649.665)"/></g></g></g><path class="f" d="M559.982,505.028l-7.076,2.527-11.473-14.542,4.166-26.638,2.028-21.382s5.14,2.85,6.241,12.012c.645,5.371-.507,30.354-.507,30.354Z" transform="translate(-159.357 -96.16)"/><path class="g" d="M552.173,750.277l-1.959,10.34-4.379-.711.7-9.629Z" transform="translate(-161.674 -256.89)"/><path class="h" d="M544.725,766.919s.466,1.352,3.541,1.148a5.171,5.171,0,0,0,1.4-.482s3.485,6.237,5.495,6.891c1.7.552,1.3,1.858,1.3,1.858l-3.67.8L547.71,773.8l-.5-1.417-.014.312-.766.254-2.151-1.2-.466-1.376Z" transform="translate(-160.611 -265.652)"/><path class="g" d="M601.345,737.683l.383,3.679-3.9,1.722-1.912-3.135.647-2.5Z" transform="translate(-188.04 -250.137)"/><path class="b" d="M508.714,537.762l-34.132,2.4-2.4,19.6,1.5,7.02L508,606.379l-2.52,36.739,5.938,1.055,3.779-1.489,6.486-36.811,1.355-4.173-8.866-21.349,18.292,10.905-1.237,14.431-2.191,26.336,6.7,2.335,3.637-.936,8.594-42.687.849-4.874L515.6,551.976Z" transform="translate(-122.897 -145.002)"/><g transform="translate(394.984 455.281)"><path class="i" d="M568.739,674.546l-.046-.472c1.87-.184,2.924-.716,2.968-1.5.056-.993-1.349-2.16-2.063-2.313l.1-.463c.855.183,2.508,1.524,2.436,2.8C572.092,673.341,571.469,674.277,568.739,674.546Z" transform="translate(-568.693 -669.8)"/></g><g transform="translate(420.647 439.378)"><path class="i" d="M624.395,640.683a4.059,4.059,0,0,1-1.5-.325l.177-.439a2.4,2.4,0,0,0,2.435-.063,1.8,1.8,0,0,0,.576-1.717,1.867,1.867,0,0,0-1.216-1.476l.158-.446a2.332,2.332,0,0,1,1.524,1.843,2.266,2.266,0,0,1-.746,2.165A2.187,2.187,0,0,1,624.395,640.683Z" transform="translate(-622.89 -636.215)"/></g><g transform="translate(384.302 424.871)"><rect class="i" width="0.473" height="12.672" transform="translate(0 0.224) rotate(-28.204)"/></g><g transform="translate(360.828 431.336)"><rect class="i" width="0.474" height="28.006" transform="matrix(0.767, -0.642, 0.642, 0.767, 0, 0.304)"/></g><path class="h" d="M593.669,741.766a12.821,12.821,0,0,0,4.956,1.645,5.166,5.166,0,0,0,1.466-.2,4.33,4.33,0,0,0,1.933,2.456,45.427,45.427,0,0,0,4.485,2.4c1.581.624,1.877,1.333,1.8,1.951l-.116.877-8.108-1.6a10.753,10.753,0,0,0-2.062-1.893l-.123.938-.843.366-4.7-1.12-.107-1.971Z" transform="translate(-186.109 -252.409)"/><path class="j" d="M540.283,394.394c-.352,1.036-.478,2.554.524,2.893,1.467.5,1.255-.867,1.607-1.9s.844-2.417-.449-2.44C541.114,392.928,540.635,393.358,540.283,394.394Z" transform="translate(-158.616 -68.756)"/><path class="j" d="M509.638,391.77c.042,1.093-.269,2.584-1.327,2.624-3.636.136-1.71-1.491-1.749-2.506-.042-1.092.632-2.333,1.877-1.987C509.258,390.129,509.6,390.678,509.638,391.77Z" transform="translate(-140.747 -67.124)"/><path class="k" d="M517.414,425.891c-1.073-6.129.448-14.879.448-14.879l-12.026-1.381s-3.406,10.019-3.936,15.311c-.4,4.007,10.59,11.172,10.59,11.172Z" transform="translate(-138.538 -77.542)"/><path class="k" d="M525.308,377.421s-1.475,10.316-2.5,13.9c-.512,1.793-2.669,2.59-4.521,2.378l-5.812-.664a3.81,3.81,0,0,1-3.373-3.553c-.282-4.632-.23-10.321.527-12.687,1.047-3.274,2.418-3.023,4.949-4.468a5.086,5.086,0,0,1,4.932-.061l4.229,2.274A3,3,0,0,1,525.308,377.421Z" transform="translate(-142.252 -57.551)"/><path class="b" d="M508.043,368.337c.5-.465,1.786-.2,2.664-2.245,1.235-2.877,2.38-2.69,5.159-2.582.921.036,2.057-.8,4.388-.28,2.727.614,3.024,2.628,3.024,2.628a3.712,3.712,0,0,1,2.156,1.161c.577.738.426,2.667.393,3.346-.078,1.612,1.493,1.557,1.563,3.239.086,2.077-3.116,4.737-3.116,4.737s.9-3.669.338-5.428a4.637,4.637,0,0,0-2.3-3.179c-1.7-1.208-5.07-1.638-7.249-1.324-1.574.226-3.621,1.006-4.457,2.224-1.511,2.2-1.732,6.649-1.732,6.649a8.7,8.7,0,0,0-1.091-3.047C507.369,373.674,506.668,369.609,508.043,368.337Z" transform="translate(-141.35 -53.022)"/><path class="b" d="M513.593,374.442c.021-.818,2.589-3.419,5.826-3.347,1.655.036,3.428.976,5.623.4a2.518,2.518,0,0,0,1.062-2.357,5.993,5.993,0,0,1,3.685,3.893,4.036,4.036,0,0,1,.172,1.789,4.318,4.318,0,0,1-2.642,3.563,7.71,7.71,0,0,1-6.928-1.534A8.247,8.247,0,0,0,513.593,374.442Z" transform="translate(-144.699 -56.221)"/><g transform="translate(369.475 329.131)"><path class="b" d="M514.828,408.24a2.812,2.812,0,0,0,2.347,2.6l4.877.477a3.085,3.085,0,0,0,3.524-2.052c.373-1.132-1.07-4.381-2.013-5.111-.916-.71-4.735-.974-5.77-.591C516.6,404,514.683,407.072,514.828,408.24Zm3.393-3.367a.536.536,0,0,1,.613-.257c.516.154,1.4.409,1.783.47.418.067,1.436.1,2.01.119a.534.534,0,0,1,.5.434l.758,2.627a.486.486,0,0,1-.562.594c-.946-.229-2.555-.611-3.244-.725-.621-.1-2.087-.248-2.99-.332a.5.5,0,0,1-.351-.762Z" transform="translate(-514.82 -403.385)"/></g><path class="h" d="M516.1,392.461a.459.459,0,0,1,.486-.57l4.626.408a.514.514,0,0,1,.462.6l-.209,1.359a.608.608,0,0,1-.654.513l-4.225-.373Z" transform="translate(-146.012 -68.201)"/><path class="h" d="M537.733,395.075a.459.459,0,0,0-.293-.689l-4.515-.655a.514.514,0,0,0-.619.43l-.206,1.36a.608.608,0,0,0,.471.685l4.283.678Z" transform="translate(-154.439 -69.165)"/><path class="l" d="M514.726,442.862l-6.314,9.051-7.2-11.239-6.017,3.14s11.954,18.324,12.251,18.285,5.248,1.257,5.347,1.026,5.919-20.1,5.919-20.1Z" transform="translate(-135.013 -93.886)"/><path class="f" d="M523.232,463.031l-3.2.653,2.637,9.634,1.749-1.361Z" transform="translate(-148.087 -105.657)"/><path class="m" d="M508.222,484.92l.567-16.7,1.61-8.012-1.7-22.83-7.19-4.543-6.406,22.636-14.258-24.018-9.674,4.6s-.742,13.732-.529,19.12a12.274,12.274,0,0,1-3.229,8.438l3.4,23.914,25.14,1.2.064-1.761Z" transform="translate(-120.387 -89.033)"/><path class="n" d="M531.07,441.729l-1.758-4.43-2.194.373-2.509,4.643-1.966.653s4.205-7.285,5.709-9.772a6.559,6.559,0,0,0,.447-2.866,50.116,50.116,0,0,1,.136-6.646l1.938,2.659,1.952,3.406Z" transform="translate(-149.464 -84.941)"/><path class="n" d="M506.71,442.307l-5.191-6.4-4.873,4.418L494.61,425.9l3.809-3.041,2.549-.881-1.17,6.255,2.911,5.735,6.255,8.644Z" transform="translate(-134.704 -84.045)"/><g transform="translate(374.647 367.965)"><path class="i" d="M526.914,513.583h-.474c0-.162,0-16.293-.7-28.157l.473-.028C526.911,497.276,526.914,513.421,526.914,513.583Z" transform="translate(-525.742 -485.398)"/></g><g transform="translate(387.491 349.586)"><rect class="i" width="0.474" height="20.929" transform="matrix(0.998, -0.067, 0.067, 0.998, 0, 0.032)"/></g><g transform="translate(393.324 386.197)"><rect class="i" width="0.474" height="4.673"/></g><g transform="translate(381.847 415.398)"><rect class="i" width="6.828" height="0.474" transform="translate(0 6.648) rotate(-76.792)"/></g><rect class="h" width="0.522" height="1.679" transform="translate(375.836 325.524) rotate(-80.244)"/><g transform="translate(372.368 403.158)"><path class="o" d="M542.91,589.156l14.9-23.589,29.018-5.845L569.6,581.262l-25.687,7.894-22.987-13.38,26.55-7.817,5.449,5.332Z" transform="translate(-520.93 -559.723)"/><path class="o" d="M543.917,598.315l-22.987-13.38,26.55-7.817,6.841,3.129Z" transform="translate(-520.93 -568.881)"/><path class="p" d="M547.468,597.8l-20.726-12.064.1-.65,23.927-7.2,6.484,2.975Z" transform="translate(-523.99 -569.286)"/></g><g transform="translate(375.543 411.395)"><path class="j" d="M544.55,584.029a3.1,3.1,0,0,1-2.307.651,33.64,33.64,0,0,0-4.65-.964c-.947.253-2.885,1.87-3.994,1.756-1.174-.121-5.963-3.648-5.963-3.648l1.888-4.705,6.1,2.1,4.262-1.027s4.438,2.884,4.942,4.74A1.106,1.106,0,0,1,544.55,584.029Z" transform="translate(-527.635 -577.118)"/><g transform="translate(10.915 6.399)"><rect class="i" width="0.474" height="4.524" transform="translate(0 0.463) rotate(-78.126)"/></g></g><g transform="translate(391.655 403.981)"><path class="j" d="M573.428,576.283a3.1,3.1,0,0,1-2.2-.945,33.729,33.729,0,0,0-3.011-3.673c-.9-.4-3.419-.36-4.209-1.146-.837-.832-2.343-6.586-2.343-6.586l4.427-2.472,3.419,5.469,3.96,1.881s1.638,5.033.862,6.793A1.1,1.1,0,0,1,573.428,576.283Z" transform="translate(-561.662 -561.461)"/><g transform="translate(7.306 10.22)"><rect class="i" width="0.473" height="4.524" transform="translate(0 0.299) rotate(-39.168)"/></g></g><path class="f" d="M468.834,465.149c1.515-12.542-1.38-25.528-3.849-24.981-3.847.852-10.653,8.362-10.88,24.183-.1,7.088,2.292,18.374,2.754,25.249.128,1.906.973,5.732,1.984,6.4,9.979,6.575,30.6,14.878,30.6,14.878l4.2-6.761-24.186-17.745S467.967,472.324,468.834,465.149Z" transform="translate(-113.377 -93.611)"/><path class="f" d="M530.476,571.513l-5.282-4.424-5.6,10.279,6.386,2.367Z" transform="translate(-147.86 -160.443)"/><path class="f" d="M571.377,563.7l-2.03-6.739-10.126,3.161,2.646,5.7Z" transform="translate(-168.722 -155.111)"/><path class="f" d="M570.421,552.894l-6.75,1.571-1.4-3.611,2.8-12.251Z" transform="translate(-170.327 -145.445)"/><path class="j" d="M770.914,342.025l-1.922.82-1.607,3.105-.285,1.724.888,6.328-1.732,3.818,4.252.658,1.286-3.789.92-2.066-.955-3.517-1.358-2.054,1.306-3.137-.205-.761-.168-.884A.287.287,0,0,0,770.914,342.025Z" transform="translate(-277.724 -41.933)"/><path class="j" d="M876.9,346.527l1.809,1.045,1.51,2.84.075,1.746-1.712,6.43,1.582,5.432c-1.793-.213-4.822-.96-4.822-.96l-.671-4.468-.392-1.972,1.371-3.376,1.152-1.664-.919-3.271.3-.731.273-.858A.288.288,0,0,1,876.9,346.527Z" transform="translate(-334.596 -44.294)"/><path class="q" d="M760.141,869.93l.019,3.793,3.868,2.352,2.445-3.034-.175-3.592Z" transform="translate(-274.505 -319.633)"/><path class="q" d="M828.779,876.173l.281,3.328,3.7,1.905,2.363-3.019-.383-2.845Z" transform="translate(-310.642 -322.841)"/><path class="k" d="M806.767,478.974l2.549-23.011,8.572-3.656,3.333,27.675-10.2,2.913Z" transform="translate(-299.053 -100.011)"/><path class="r" d="M785.943,490.751l3.714,2.053,5.923,8.224,10.838-7.457,5.74-.392,8.165,14.149-2.744,6.611s-9.991,31.375-10.819,37.688a3.349,3.349,0,0,1-2.489,3.11c-7.073,1.381-22.638-3.538-26.36-5.229a2.6,2.6,0,0,1-1.186-2.543c1.112-6.276-.138-38.746-.138-38.746Z" transform="translate(-283.164 -120.251)"/><path class="p" d="M808.914,512.241l-1.789,22.91-1.1,14.5-2.662,11.12h.748l3.179-10.405.91-15.294,1.723-22.938Z" transform="translate(-297.263 -131.507)"/><path class="m" d="M758.022,614.846l26.36,5.229s3.2,10.3,3.7,13.846c1.622,11.553,1.877,46.659,1.877,46.659l1.344,4.706-2.185,3.361-1.037,51.261-2.3.84h-5.6l-4.874-45.042,1.176-8.571-9.371-36.542L756.682,682.8l-1.834,2.8,2.466,11.745-1.484,39.635-3.985,1.356-4.711-.452-7.33-50.515a2.912,2.912,0,0,1-.619-3.606,12.818,12.818,0,0,1,1.612-1.858l10.436-57.776Z" transform="translate(-263.266 -185.586)"/><path class="b" d="M801.252,446.044s-3.683-1.473-4.625-2.636c-.785-.97-1.591-4.369-1.591-4.369l3.058-.151Z" transform="translate(-292.876 -92.945)"/><path class="k" d="M797.691,438.007l2.71,10.7a2.066,2.066,0,0,0,2.262,1.542l5.147-.651a3.258,3.258,0,0,0,2.732-2.367l1.745-6.331s2.439-.554,1.6-4.127c-.456-1.933-3.146-.143-3.146-.143l-4.916-7.561-10.694,4.741Z" transform="translate(-292.925 -87.778)"/><path class="b" d="M787.41,428.138a7.657,7.657,0,0,0,3.343,3.657c1.736.867,4.478.753,7.659-.051a9.9,9.9,0,0,0,4.436-2.763l1.646-4.062s-1.173-2.414-3.281-2.507c-3.3-.146-12.082,4.93-12.082,4.93l-1.9-.662A8.66,8.66,0,0,0,787.41,428.138Z" transform="translate(-288.764 -84.27)"/><path class="b" d="M821.864,427.709c.167-.021,2.465.571,2.664.637,1.105.368,1.533,1.712,1.724,2.577a18.827,18.827,0,0,1-.044,4.309l-1.521.684-.3,1.546-4.169-5.69Z" transform="translate(-306.135 -87.06)"/><path class="p" d="M799.167,501.363l.175-1.616,3.729-3.572,2.893,2.235.609-.281-4.25-7.575.571-5.155-5.725,4.868,1.431,9.542Z" transform="translate(-294 -117.434)"/><path class="p" d="M815.81,496.165c.572-.457,6.139-3.225,6.139-3.225l3.245,6.76,3.856-10.584-2.311-5.777-2.908-2.742.627,5.228.206,1.71-9.582,8.1Z" transform="translate(-303.431 -114.905)"/><path class="s" d="M829.373,882.665s1.474,4.495,2.385,6.442c2.344,5.013,5.633,6.541,7.123,6.014,1.431-.506-1.241-7.829-1.241-7.829l-2.2-5.74s-1.089,1.287-1.9,1.287C832.593,882.838,829.373,882.665,829.373,882.665Z" transform="translate(-310.955 -326.005)"/><g transform="translate(501.554 457.953)"><rect class="i" width="0.474" height="6.308" transform="matrix(0.966, -0.259, 0.259, 0.966, 0, 0.123)"/></g><g transform="translate(513.007 371.764)"><rect class="i" width="11.621" height="0.474" transform="translate(0 7.509) rotate(-40.253)"/></g><g transform="translate(507.47 372.237)"><rect class="i" width="0.474" height="4.13" transform="translate(0 0.251) rotate(-32.056)"/></g><g transform="translate(517.371 434.469)"><path class="i" d="M829.24,634.076a28.549,28.549,0,0,1-2.078-8.188l.472-.04a28.047,28.047,0,0,0,2.036,8.029Z" transform="translate(-827.162 -625.847)"/></g><g transform="translate(488.7 430.157)"><path class="i" d="M766.735,624.948l-.125-.457c4.5-1.227,6.875-7.685,6.9-7.75l.446.161C773.855,617.177,771.47,623.657,766.735,624.948Z" transform="translate(-766.61 -616.741)"/></g><g transform="translate(476.523 498.023)"><path class="i" d="M741.7,763.341a2.275,2.275,0,0,1-.2-3.273l.361.307a1.837,1.837,0,0,0,.155,2.613Z" transform="translate(-740.893 -760.068)"/></g><g transform="translate(523.766 499.241)"><path class="i" d="M840.877,765.877l-.21-.424a4.233,4.233,0,0,0,2.063-2.814l.466.081A4.636,4.636,0,0,1,840.877,765.877Z" transform="translate(-840.667 -762.639)"/></g><path class="p" d="M754.732,370.947l-8,29.683-1.344,7.45-.882,2.194,15.2,34.872,9.355-17.468-11.145-22.42-.179-6.14,3.771-26.412Z" transform="translate(-266.273 -57.175)"/><path class="p" d="M867.558,378.768l5.93,22.463,1.93,18.637-15.745,30.806-4.533,5.786-4.768-6.115-1.22-15.434,14.687-20.78-1.561-10.007-1.619-24.661Z" transform="translate(-321.368 -61.293)"/><g transform="translate(495.792 427.976)"><rect class="i" width="0.473" height="8.554" transform="translate(0 0.47) rotate(-82.955)"/></g><g transform="translate(526.827 396.483)"><rect class="i" width="19.348" height="0.474" transform="translate(0 18.51) rotate(-73.078)"/></g><path class="b" d="M810.465,509.847l5.3.741-2.373,4.99-2.416-.477-1.135-3.877Z" transform="translate(-300.672 -130.306)"/><path class="b" d="M802.681,540.182l4.5-20.069,2.7.3.969,20.284-5.625,6.094Z" transform="translate(-296.901 -135.71)"/><path class="p" d="M759.6,375.981l2.682-7.129,7.576,1.773-.992,7.618Z" transform="translate(-274.221 -56.072)"/><path class="p" d="M881.729,382.024l-2.707-6.29-6.62,2.017-.053,6.563Z" transform="translate(-333.581 -59.696)"/><path class="s" d="M754.35,882.7l-.2-4.313-.18-1.351s-2.28.71-3.138.853a10.31,10.31,0,0,1-2.586-.088l-.589-.084s-3.936,2.48-5.083,3.416c-1.634,1.333-6.569,2.194-6.159,3.981l8.163-.739a2.889,2.889,0,0,0,1.875-.8,11.505,11.505,0,0,1,2.332-1.569,6.246,6.246,0,0,1,1.092-.442l.36,1.91Z" transform="translate(-261.999 -323.627)"/><path class="t" d="M798,262.35l45.469,2.5s2.033-.146,3.65,2.732c1.01,1.8.61,5.1.61,5.1L802.635,270.2s-.125-3.489-.853-4.638C800.012,262.777,798,262.35,798,262.35Z" transform="translate(-294.436)"/><path class="t" d="M817.276,324.921l-42.7-2.347.621-11.291,2.117-38.522s.137-2.492.249-4.53c.359-6.542,9.575-5.744,9.575-5.744l44.206,2.43c-2.556-.141-4.958,2.5-5.561,4.838a40.053,40.053,0,0,0-.464,5.012l-2.17,39.47s-.281,4.612-.536,5.913C821.587,325.369,817.276,324.921,817.276,324.921Z" transform="translate(-282.104 -0.056)"/><path class="e" d="M850.621,377.584l-9.943-3.4.625-11.368,10.1.555Z" transform="translate(-316.907 -52.896)"/><path class="t" d="M811.521,382.074l-42.944-2.361a5.243,5.243,0,0,1-3.627-3.154c-.9-1.854-.331-5.505-.331-5.505l42.313,2.326s-.487,3.317.607,5.12A8.29,8.29,0,0,0,811.521,382.074Z" transform="translate(-276.769 -57.232)"/><path class="j" d="M827.335,294.633l-27.773-1.527a1.264,1.264,0,0,1,.139-2.525l27.772,1.527a1.264,1.264,0,1,1-.139,2.525Z" transform="translate(-294.631 -14.863)"/><path class="j" d="M825.945,319.927,798.172,318.4a1.264,1.264,0,1,1,.139-2.525l27.773,1.527a1.264,1.264,0,0,1-.139,2.525Z" transform="translate(-293.898 -28.18)"/><path class="j" d="M809.425,344.03l-12.624-.694a1.264,1.264,0,0,1,.139-2.525l12.624.694a1.264,1.264,0,1,1-.139,2.525Z" transform="translate(-293.177 -41.308)"/><path class="e" d="M836.661,375.152s-2.144.765-2.344,4.416l-.338,6.138-4.2-2.01-4.484,1.533.385-7.007c.131-2.385,1.592-3.585,2.039-3.561Z" transform="translate(-308.81 -59.13)"/><path class="e" d="M850.57,341.276a2.222,2.222,0,0,1,.133-2.42,2.23,2.23,0,0,0-.889-3.35,2.217,2.217,0,0,1-1.312-2.036,2.227,2.227,0,0,0-2.684-2.186,2.233,2.233,0,0,1-2.266-.874,2.218,2.218,0,0,0-3.452-.19,2.224,2.224,0,0,1-2.348.621,2.228,2.228,0,0,0-2.908,1.879,2.215,2.215,0,0,1-1.527,1.879,2.23,2.23,0,0,0-1.251,3.232,2.222,2.222,0,0,1-.133,2.42,2.225,2.225,0,0,0,.89,3.344,2.224,2.224,0,0,1,1.312,2.04,2.224,2.224,0,0,0,2.685,2.181,2.23,2.23,0,0,1,2.265.88,2.226,2.226,0,0,0,3.452.19c1.1-1.216,2.359-.545,2.93-.513a2.232,2.232,0,0,0,2.326-1.986,2.223,2.223,0,0,1,1.528-1.885A2.225,2.225,0,0,0,850.57,341.276Z" transform="translate(-312.076 -35.347)"/><path class="m" d="M851.285,342.07a8.291,8.291,0,1,1-7.823-8.732A8.291,8.291,0,0,1,851.285,342.07Z" transform="translate(-313.768 -37.368)"/><g transform="translate(523.508 298.432)"><path class="e" d="M845.58,350.095a5.776,5.776,0,1,1,6.084-5.451A5.783,5.783,0,0,1,845.58,350.095Zm.492-8.955a3.193,3.193,0,1,0,3.013,3.362A3.2,3.2,0,0,0,846.073,341.14Z" transform="translate(-840.121 -338.552)"/></g></g></svg>