<?xml version="1.0" encoding="UTF-8"?>
<svg width="316px" height="527px" viewBox="0 0 316 527" version="1.1" xmlns="http://www.w3.org/2000/svg" xmlns:xlink="http://www.w3.org/1999/xlink">
    <!-- Generator: sketchtool 63.1 (101010) - https://sketch.com -->
    <title>8DE67E91-D631-44B4-82FB-725312559E64</title>
    <desc>Created with sketchtool.</desc>
    <defs>
        <polygon id="path-1" points="0.443004855 0.816 71.7076972 0.816 71.7076972 62.430269 0.443004855 62.430269"></polygon>
    </defs>
    <g id="UI" stroke="none" stroke-width="1" fill="none" fill-rule="evenodd">
        <g id="About-page" transform="translate(-77.000000, -1332.000000)">
            <g id="Group-70" transform="translate(77.000000, 1331.000000)">
                <path d="M250.7078,460.1836 L268.7078,483.1836 L261.7078,498.1836 C261.7078,498.1836 237.7078,505.1836 240.7078,527.1836 L267.7078,526.1836 L315.7078,480.1836 L271.7078,439.1836 L250.7078,460.1836 Z" id="Fill-1" fill="#0A032B"></path>
                <path d="M119.7078,469.1836 L124.7078,498.1836 C124.7078,498.1836 79.7078,497.1836 77.7078,527.1836 L162.7078,527.1836 L154.7078,469.1836 L119.7078,469.1836 Z" id="Fill-3" fill="#0A032B"></path>
                <path d="M77.2078,192.6836 C65.2078,183.6836 70.2078,149.6836 72.2078,142.6836 C74.2078,135.6836 94.2078,148.6836 94.2078,148.6836 C94.2078,148.6836 88.2078,142.6836 88.2078,137.6836 C88.2078,132.6836 94.2078,134.6836 94.2078,134.6836 C96.4308,136.9076 98.9368,138.9126 101.6508,140.7316 C106.3558,102.5246 110.5918,74.3816 112.3478,63.1116 C102.8098,66.2606 93.2968,70.9516 84.2078,77.6836 C84.2078,77.6836 68.8388,108.4036 60.2078,148.6836 C55.5088,170.6126 38.2718,206.9856 23.4378,236.7456 C35.4838,242.8176 57.4268,252.0526 77.7368,251.0596 C83.1088,238.0696 87.2078,226.6836 87.2078,226.6836 L83.2078,281.6836 L87.9478,281.5696 C89.9078,253.2096 92.3468,225.7896 94.9308,200.4306 C86.6588,197.7236 80.3018,195.0046 77.2078,192.6836" id="Fill-5" fill="#02DBCB"></path>
                <path d="M164.0711,75.4991 C164.3981,68.0611 164.7511,62.1921 164.9921,58.5681 C149.2751,56.7061 130.7681,57.0291 112.3471,63.1111 C111.8731,66.1581 111.2161,70.4481 110.4181,75.8261 C120.7511,79.2131 139.7001,82.7221 164.0711,75.4991" id="Fill-7" fill="#EAA54B"></path>
                <g id="Group-11" transform="translate(102.000000, 0.184000)">
                    <mask id="mask-2" fill="white">
                        <use xlink:href="#path-1"></use>
                    </mask>
                    <g id="Clip-10"></g>
                    <path d="M22.0467,13.1989 C22.0467,13.1989 33.7207,-2.6781 39.3247,1.5239 C39.3247,1.5239 41.1927,2.9259 41.1927,5.7269 C41.1927,8.5289 59.4037,0.5909 65.4747,10.3969 C65.4747,10.3969 69.6767,16.4679 65.9417,24.4059 C65.9417,24.4059 72.0117,29.5419 67.3417,30.4759 C67.3417,30.4759 74.3467,38.8819 70.6107,47.2869 C66.8757,55.6919 55.6687,60.8289 46.7957,60.8289 C37.9237,60.8289 22.9807,64.0969 15.5097,61.2959 C8.0377,58.4939 8.0377,49.6219 8.0377,49.6219 C8.0377,49.6219 2.6687,49.8549 5.0027,44.7189 C5.0027,44.7189 -1.0673,40.9819 0.7997,35.8459 C2.6687,30.7099 11.0737,23.7049 11.0737,23.7049 C11.0737,23.7049 6.4037,23.7049 6.4037,20.9029 C6.4037,18.1009 22.0467,13.1989 22.0467,13.1989" id="Fill-9" fill="#1E0D4D" mask="url(#mask-2)"></path>
                </g>
                <path d="M119.8079,41.8477 C119.8079,42.6007 119.8439,43.3347 119.9069,44.0787 C120.1579,46.7567 120.8379,49.3007 121.8949,51.6037 C125.1559,58.8147 131.9189,63.7687 139.7399,63.7687 C150.7579,63.7687 159.6709,53.9507 159.6709,41.8477 C159.6709,36.2227 157.7539,31.0897 154.5919,27.2107 C154.2959,26.8527 153.9919,26.5027 153.6689,26.1627 C150.0859,22.3017 145.1679,19.9187 139.7399,19.9187 C136.9179,19.9187 134.2399,20.5637 131.8119,21.7377 C131.4539,21.8987 131.1039,22.0777 130.7639,22.2747 C124.2509,25.8757 119.8079,33.2847 119.8079,41.8477" id="Fill-12" fill="#F7C26B"></path>
                <path d="M152.1995,41.8448 C152.1995,43.7688 153.0965,45.3328 154.1925,45.3328 C155.2885,45.3328 156.1855,43.7688 156.1855,41.8448 C156.1855,41.5858 156.1665,41.3358 156.1365,41.0978 L157.0325,40.1998 C157.2325,40.0108 157.2325,39.6928 157.0325,39.5028 C156.8435,39.3038 156.5245,39.3038 156.3355,39.5028 L155.8665,39.9708 C155.8175,39.8218 155.7575,39.6818 155.6875,39.5528 L157.0325,38.2068 C157.2325,38.0178 157.2325,37.6988 157.0325,37.5098 C156.8435,37.3108 156.5245,37.3108 156.3355,37.5098 L155.0995,38.7448 C154.8305,38.4958 154.5215,38.3568 154.1925,38.3568 C153.0965,38.3568 152.1995,39.9208 152.1995,41.8448" id="Fill-14" fill="#000000"></path>
                <path d="M147.7151,51.8047 L147.7151,51.8047 C149.0911,51.8047 150.2061,50.6897 150.2061,49.3137 L150.2061,39.3477 C150.2061,37.9717 149.0911,36.8557 147.7151,36.8557 C146.3391,36.8557 145.2231,37.9717 145.2231,39.3477 L145.2231,49.3137 C145.2231,50.6897 146.3391,51.8047 147.7151,51.8047" id="Fill-16" fill="#FC9B78"></path>
                <path d="M131.8089,21.7334 C133.3039,24.9524 136.2939,28.4004 142.2339,29.3864 C148.1339,30.3744 154.2159,30.8984 156.7079,29.1834 C152.7079,22.1834 145.6419,19.9194 139.7419,19.9194 C136.9219,19.9194 134.2409,20.5674 131.8089,21.7334" id="Fill-18" fill="#1E0D4D"></path>
                <path d="M119.8079,41.8477 C119.8079,42.6007 119.8439,43.3347 119.9069,44.0787 C120.1579,46.7567 120.8379,49.3007 121.8949,51.6037 L128.5419,41.3277 C138.7079,37.1837 149.7669,28.3917 150.7079,22.1837 C147.1239,18.3237 145.1679,19.9187 139.7399,19.9187 C136.9179,19.9187 134.2399,20.5637 131.8119,21.7377 C131.4539,21.8987 131.1039,22.0777 130.7639,22.2747 C124.2509,25.8757 119.8079,33.2847 119.8079,41.8477" id="Fill-20" fill="#1E0D4D"></path>
                <path d="M122.2713,44.0157 C122.2713,40.5527 123.8753,37.7447 125.8543,37.7447 C127.8333,37.7447 129.4383,40.5527 129.4383,44.0157 C129.4383,47.4797 127.8333,50.2867 125.8543,50.2867 C123.8753,50.2867 122.2713,47.4797 122.2713,44.0157" id="Fill-22" fill="#F7C26B"></path>
                <path d="M136.2903,39.3233 L138.0243,39.9013 C137.9743,40.2003 137.9443,40.5193 137.9443,40.8473 C137.9443,42.7713 138.8413,44.3363 139.9373,44.3363 C141.0343,44.3363 141.9313,42.7713 141.9313,40.8473 C141.9313,38.9253 141.0343,37.3603 139.9373,37.3603 C139.5893,37.3603 139.2603,37.5193 138.9813,37.7993 L136.7083,36.4323 C136.4693,36.2943 136.1613,36.3733 136.0213,36.6023 C135.8813,36.8423 135.9613,37.1503 136.1903,37.2903 L138.4133,38.6263 C138.3533,38.7253 138.3133,38.8253 138.2733,38.9443 L136.6093,38.3863 C136.3503,38.2973 136.0613,38.4363 135.9813,38.6953 C135.8923,38.9543 136.0313,39.2433 136.2903,39.3233" id="Fill-24" fill="#000000"></path>
                <path d="M23.4378,236.7452 C9.8598,263.9842 -1.7042,285.6832 0.2078,285.6832 C0.2078,285.6832 5.2078,292.6832 11.2078,285.6832 L18.2078,276.6832 C18.2078,276.6832 9.2078,316.6832 13.2078,318.6832 C17.2078,320.6832 23.2078,318.6832 23.2078,318.6832 L28.2078,288.6832 C28.2078,288.6832 49.2078,296.6832 59.2078,286.6832 C64.4368,281.4552 71.8508,265.2942 77.7368,251.0592 C57.4268,252.0532 35.4838,242.8172 23.4378,236.7452" id="Fill-26" fill="#EAA54B"></path>
                <path d="M164.7137,157.3936 C176.2047,158.0576 184.2077,157.6836 184.2077,157.6836 C184.2077,157.6836 177.2077,119.6836 176.2077,93.6836 C175.3687,71.8806 197.7277,69.0666 204.9707,68.7256 C199.4857,66.4746 184.3587,60.8636 164.9917,58.5686 C164.1037,71.9506 161.6777,115.7446 164.7137,157.3936" id="Fill-28" fill="#02DBCB"></path>
                <path d="M164.0711,75.4991 C139.7001,82.7221 120.7511,79.2131 110.4181,75.8261 C108.2661,90.3441 105.0841,112.8531 101.6511,140.7311 C119.4631,152.6671 146.4801,156.3401 164.7141,157.3941 C162.5001,127.0221 163.1901,95.5261 164.0711,75.4991" id="Fill-30" fill="#FFFFFF"></path>
                <path d="M18.2078,276.6836 L23.2078,269.6836 C23.2078,269.6836 40.2078,273.6836 48.2078,263.6836" id="Stroke-32" stroke="#000000"></path>
                <path d="M28.2078,288.6836 C28.2078,288.6836 29.2078,278.6836 35.2078,275.6836 C41.2078,272.6836 66.2078,276.6836 66.2078,276.6836" id="Stroke-34" stroke="#000000"></path>
                <line x1="36.9666" y1="290.9922" x2="44.9186" y2="274.5682" id="Stroke-36" stroke="#000000"></line>
                <line x1="49.0135" y1="291.4063" x2="57.1865" y2="275.4863" id="Stroke-38" stroke="#000000"></line>
                <path d="M141.8103,118.1914 L143.1603,112.1174 C143.4003,111.0394 142.7193,109.9704 141.6413,109.7314 C140.5623,109.4924 139.4953,110.1704 139.2553,111.2504 L137.9153,117.2824 L130.7183,115.6034 L132.1603,109.1174 C132.4003,108.0394 131.7193,106.9704 130.6413,106.7314 C129.5623,106.4924 128.4953,107.1704 128.2553,108.2504 L126.8233,114.6944 L118.6763,112.7934 L120.1603,106.1174 C120.4003,105.0394 119.7193,103.9704 118.6413,103.7314 C117.5623,103.4924 116.4953,104.1704 116.2553,105.2504 L114.7813,111.8844 L107.7963,110.2544 L109.1603,104.1174 C109.4003,103.0394 108.7193,101.9704 107.6413,101.7314 C106.5623,101.4924 105.4953,102.1704 105.2553,103.2504 L103.9013,109.3454 L96.7043,107.6674 L98.1603,101.1174 C98.4003,100.0394 97.7193,98.9704 96.6413,98.7314 C95.5623,98.4924 94.4953,99.1704 94.2553,100.2504 L92.8093,106.7574 L88.2073,105.6834 L69.2073,191.6834 L131.2073,207.6834 L148.2073,119.6834 L141.8103,118.1914 Z" id="Fill-40" fill="#EDEDED"></path>
                <path d="M94.9305,200.4307 C94.9305,200.4307 77.2075,316.6837 81.2075,391.6837 C85.2075,466.6837 84.2075,475.6837 84.2075,475.6837 L184.2075,470.6837 C184.2075,470.6837 163.2075,401.6837 163.2075,360.6837 C163.2075,360.6837 197.2075,452.6837 233.2075,479.6837 C233.2075,479.6837 289.2075,440.6837 306.2075,413.6837 C306.2075,413.6837 257.2075,384.6837 215.2075,276.6837 L194.1485,211.5957 C194.1485,211.5957 159.6535,221.1767 94.9305,200.4307" id="Fill-42" fill="#FAB7B9"></path>
                <path d="M89.2078,451.6836 C89.2078,451.6836 137.2078,456.6836 169.2078,448.6836" id="Stroke-44" stroke="#000000"></path>
                <path d="M225.2078,463.6836 C225.2078,463.6836 267.2078,440.6836 288.2078,405.6836" id="Stroke-46" stroke="#000000"></path>
                <path d="M162.2078,354.6836 C162.2078,354.6836 148.2078,328.6836 143.2078,291.6836 C138.2078,254.6836 129.2078,238.6836 122.2078,228.6836" id="Stroke-48" stroke="#000000"></path>
                <path d="M128.7078,50.6836 C128.7078,53.1686 126.6928,55.1836 124.2078,55.1836 C121.7228,55.1836 119.7078,53.1686 119.7078,50.6836 C119.7078,48.1986 121.7228,46.1836 124.2078,46.1836 C126.6928,46.1836 128.7078,48.1986 128.7078,50.6836" id="Fill-50" fill="#FFFFFF"></path>
                <path d="M207.0032,278.6885 L207.2082,278.6835 C207.2082,278.6835 236.2082,277.6835 256.2082,258.6835 L230.2112,191.6915 C223.6222,197.8935 206.7082,211.3865 182.2082,213.6835 C179.7062,213.9185 177.0262,214.0425 174.2082,214.0695 C174.8412,216.0105 175.5042,217.8905 176.2082,219.6835 C185.1102,242.3855 196.7862,262.9045 207.0032,278.6885" id="Fill-52" fill="#02DBCB"></path>
                <path d="M94.2078,134.6836 C94.2078,134.6836 88.2078,132.6836 88.2078,137.6836 C88.2078,142.6836 94.2078,148.6836 94.2078,148.6836 C94.2078,148.6836 74.2078,135.6836 72.2078,142.6836 C70.2078,149.6836 65.2078,183.6836 77.2078,192.6836 C82.0498,196.3156 94.8728,200.9236 110.5468,204.9326 C111.6898,183.2156 118.1058,161.6696 122.0628,150.1856 C111.3228,146.7576 101.3358,141.8126 94.2078,134.6836" id="Fill-54" fill="#EAA54B"></path>
                <path d="M239.2078,161.6836 C234.2078,142.6836 224.2078,85.6836 207.2078,69.6836 C207.2078,69.6836 206.4238,69.3216 204.9708,68.7256 C197.7278,69.0666 175.3688,71.8806 176.2078,93.6836 C177.2078,119.6836 184.2078,157.6836 184.2078,157.6836 C184.2078,157.6836 150.4928,159.2606 122.0628,150.1856 C118.1058,161.6696 111.6898,183.2156 110.5468,204.9326 C133.7168,210.8586 163.1208,215.4736 182.2078,213.6836 C206.7078,211.3866 223.6228,197.8936 230.2108,191.6916 L230.2078,191.6836 C230.2078,191.6836 230.2418,191.6566 230.2898,191.6176 C232.2548,189.7606 233.2878,188.5696 233.2878,188.5696 C237.0888,184.0506 242.6498,174.7626 239.2078,161.6836" id="Fill-56" fill="#02CCB8"></path>
                <path d="M110.2078,204.6836 C110.2078,204.6836 115.2078,162.6836 122.2078,150.6836 C122.2078,150.6836 164.2078,160.6836 184.2078,157.6836 C184.2078,157.6836 175.4638,106.2856 176.3358,96.4846 C177.2078,86.6836 178.2078,69.6836 205.2078,68.6836" id="Stroke-58" stroke="#000000" stroke-width="0.506" stroke-linecap="round" stroke-linejoin="round"></path>
                <path d="M195.2078,175.6836 C195.2078,175.6836 193.2078,162.6836 184.2078,157.6836 C184.2078,157.6836 196.2078,156.6836 201.2078,163.6836" id="Stroke-60" stroke="#000000" stroke-width="0.75" stroke-linecap="round" stroke-linejoin="round"></path>
                <path d="M87.2078,226.6836 L78.2078,250.6836 C78.2078,250.6836 59.2078,254.6836 23.2078,236.6836 C23.2078,236.6836 50.1648,186.9246 57.1868,159.8046 C57.1868,159.8046 76.2078,90.6836 84.2078,77.6836 C84.2078,77.6836 98.2078,67.6836 112.2078,62.6836" id="Stroke-62" stroke="#000000" stroke-width="0.506" stroke-linecap="round" stroke-linejoin="round"></path>
                <polygon id="Stroke-64" stroke="#000000" stroke-width="0.506" stroke-linecap="round" stroke-linejoin="round" points="201.2078 225.6836 236.2078 241.6836 233.2078 248.6836 197.2078 232.6836"></polygon>
                <line x1="94.9305" y1="200.4307" x2="85.5975" y2="281.6257" id="Stroke-66" stroke="#000000" stroke-width="0.506" stroke-linecap="round" stroke-linejoin="round"></line>
                <path d="M110.2078,75.6836 C110.2078,75.6836 129.2078,84.6836 164.2078,75.6836" id="Stroke-68" stroke="#000000" stroke-width="0.506" stroke-linecap="round" stroke-linejoin="round"></path>
            </g>
        </g>
    </g>
</svg>