<svg xmlns="http://www.w3.org/2000/svg" width="294.164" height="207.242" viewBox="0 0 294.164 207.242"><defs><style>.a{fill:#eaf4fe;}.aa,.b{fill:#c5e1f9;}.b{opacity:0.5;}.c{fill:#69aeeb;}.d{fill:#9ac7f7;}.e{fill:#aec4db;}.f{fill:#bcd0e2;}.g{fill:#cee0f0;}.h{fill:#e4eef3;}.i{fill:#fff;}.j{fill:#136fb7;}.k{fill:#d1ebf9;}.l{fill:#a6d9e8;}.m{fill:#fec12f;}.n{fill:#f9a918;}.o{fill:#e19710;}.p{fill:#eaeaec;}.q{fill:#ffc400;}.r{fill:#212957;}.s{fill:#f7b68b;}.t{fill:#dd000b;}.u{fill:#fd2227;}.v{fill:#ec9568;}.w{fill:#0450cf;}.x{fill:#0561fc;}.y{fill:#00046d;}.z{fill:none;}.ab{fill:#7ac943;}.ac{fill:#ffab01;}.ad{fill:#f4da80;}</style></defs><g transform="translate(-338.278 -209.424)"><path class="a" d="M1184.983,274.393c-14.4,4.152-29.119,16.39-58.694,13.24-55.326-5.893-102.772,20.162-84.462,80.638s62.184,90.152,110.7,61.3c35.614-21.179,33.547-49.038,57.778-56.336,45.116-13.588,55.282-48.654,34.875-76.621S1204.124,268.874,1184.983,274.393Z" transform="translate(-650.912 -57.73)"/><path class="b" d="M3507.362,369.053a8.388,8.388,0,0,0,.118-1.177,8.226,8.226,0,0,0-8.226-8.225,8.137,8.137,0,0,0-2.552.444,16.982,16.982,0,0,0-20.493-14.141,20.817,20.817,0,0,0-35.67,9h-.04a12.23,12.23,0,0,0-12.2,14.1Z" transform="translate(-2875.039 -120.648)"/><g transform="translate(338.278 242.139)"><path class="c" d="M994.386,732.485a1.137,1.137,0,0,1-.02-1.607l48.274-50.586a1.135,1.135,0,0,1,1.606-.055l79.794,76.144a1.139,1.139,0,0,1,.018,1.606l-48.274,50.587a1.139,1.139,0,0,1-1.607.056Z" transform="translate(-948.447 -679.93)"/><path class="c" d="M959.2,1368.654a1.284,1.284,0,0,1,.136-1.792l4.159-4.357a1.284,1.284,0,0,1,1.783-.221l80.879,77.184a1.282,1.282,0,0,1-.138,1.79l-4.156,4.357a1.282,1.282,0,0,1-1.783.22Z" transform="translate(-915.746 -1314.588)"/><path class="d" d="M384.191,1462.134a1.821,1.821,0,0,0-1.773-.1l-41.981,16.377c-.639.267-2.548,2.685-2.09,3.123l105.235,100.423c.458.439,2.8-1.569,3.051-2.2l15.559-41.592a1.734,1.734,0,0,0-.158-1.736Z" transform="translate(-338.278 -1407.488)"/><path class="c" d="M406.9,1435.59a1.832,1.832,0,0,0-1.772-.1l-43.743,18.223c-.639.267-.786.838-.327,1.276L466.3,1555.412c.459.436,1.036.276,1.289-.36l17.319-43.438a1.735,1.735,0,0,0-.156-1.737Z" transform="translate(-359.228 -1382.792)"/><path class="e" d="M407.35,1454.244l45.879-19.361,75.862,72.4-19.553,44.482Z" transform="translate(-402.547 -1382.39)"/><path class="f" d="M473.23,1424.572l39.349-16.42,78.368,74.784-15.531,39.151Z" transform="translate(-463.847 -1357.518)"/><path class="g" d="M539.108,1419.772l34.769-11.62,78.368,74.784L641.3,1517.287Z" transform="translate(-525.144 -1357.518)"/><path class="e" d="M615.62,1445.961l29.281-7.16,74.294,70.9-6.7,28.708Z" transform="translate(-596.336 -1386.036)"/><path class="h" d="M607.518,1414.787l30.012-6.635,78.368,74.784L709.7,1512.3Z" transform="translate(-588.797 -1357.518)"/><path class="i" d="M1036.844,769.16l45.5-47.681,78.464,74.877-45.5,47.68Z" transform="translate(-988.272 -718.59)"/></g><g transform="translate(490.14 220.497)"><path class="j" d="M2564.684,406.3a.66.66,0,0,1-.58.732l-37.937,4.36a.662.662,0,0,1-.732-.582l-3.066-26.676a.661.661,0,0,1,.581-.73l37.938-4.36a.66.66,0,0,1,.732.579Z" transform="translate(-2522.365 -378.317)"/><path class="k" d="M2613.822,734.407l-37.236,4.28-.29-2.514,37.237-4.279Z" transform="translate(-2572.547 -706.638)"/><path class="a" d="M2808.78,397.723l-2.813-24.484a.14.14,0,0,0,.012-.075c-.007-.069-.021-.135-.032-.2a2.376,2.376,0,0,1,2.1-2.43l16.263-1.87,2.929,25.489-16.264,1.869A2.689,2.689,0,0,0,2808.78,397.723Z" transform="translate(-2786.228 -368.664)"/><path class="a" d="M2556.27,429.769l-2.813-24.485a.148.148,0,0,1-.029-.069c-.008-.069-.01-.136-.013-.2a2.378,2.378,0,0,0-2.6-1.889l-16.264,1.869,2.929,25.489,16.264-1.868A2.69,2.69,0,0,1,2556.27,429.769Z" transform="translate(-2533.704 -400.712)"/><path class="k" d="M2785.259,406.853a2.377,2.377,0,0,0-1.538-1.768l2.926,25.46a2.708,2.708,0,0,1,1.468,1.065l-2.813-24.485a.148.148,0,0,1-.029-.069C2785.264,406.987,2785.262,406.921,2785.259,406.853Z" transform="translate(-2765.548 -402.553)"/><path class="l" d="M2582.047,458.309l-8.446.97-.084-.738,8.445-.97Z" transform="translate(-2569.961 -451.389)"/><g transform="translate(3.83 7.958)"><path class="l" d="M2591.289,483.664l-13.775,1.583-.064-.552,13.776-1.584Z" transform="translate(-2577.449 -483.11)"/><path class="l" d="M2593.982,507.015l-13.775,1.583-.063-.554,13.775-1.583Z" transform="translate(-2579.957 -504.838)"/><path class="l" d="M2596.662,530.357l-13.775,1.583-.063-.554L2596.6,529.8Z" transform="translate(-2582.45 -526.557)"/><rect class="l" width="13.866" height="0.557" transform="matrix(0.993, -0.114, 0.114, 0.993, 0.56, 6.454)"/><path class="l" d="M2602.018,577.062l-13.775,1.583-.065-.552,13.776-1.584Z" transform="translate(-2587.433 -570.015)"/><path class="l" d="M2604.7,600.413,2590.922,602l-.065-.554,13.776-1.583Z" transform="translate(-2589.925 -591.742)"/><path class="l" d="M2607.4,623.749l-13.776,1.583-.062-.554,13.775-1.584Z" transform="translate(-2592.438 -613.454)"/><rect class="l" width="13.867" height="0.557" transform="matrix(0.993, -0.114, 0.114, 0.993, 1.306, 12.948)"/><path class="l" d="M2612.755,670.464l-13.775,1.584-.064-.554,13.776-1.583Z" transform="translate(-2597.423 -656.923)"/><rect class="l" width="13.866" height="0.557" transform="translate(1.68 16.195) rotate(-6.555)"/><path class="l" d="M2618.122,717.161l-13.774,1.583-.064-.552,13.775-1.583Z" transform="translate(-2602.417 -700.373)"/></g><g transform="translate(22.444 5.819)"><path class="l" d="M2858.988,452.911l-13.776,1.583-.063-.553,13.775-1.583Z" transform="translate(-2845.148 -452.358)"/><path class="l" d="M2861.666,476.252l-13.776,1.584-.063-.554L2861.6,475.7Z" transform="translate(-2847.641 -474.075)"/><path class="l" d="M2864.343,499.6l-13.776,1.582-.064-.553,13.776-1.583Z" transform="translate(-2850.13 -495.8)"/><path class="l" d="M2867.03,522.961l-13.776,1.583-.063-.554,13.775-1.582Z" transform="translate(-2852.631 -517.538)"/><path class="l" d="M2869.705,546.3l-13.775,1.584-.064-.554,13.776-1.583Z" transform="translate(-2855.12 -539.258)"/><path class="l" d="M2872.382,569.648l-13.777,1.581-.064-.554,13.778-1.583Z" transform="translate(-2857.609 -560.976)"/><path class="l" d="M2875.079,593l-13.776,1.583-.063-.554,13.776-1.583Z" transform="translate(-2860.121 -582.708)"/><path class="l" d="M2877.756,616.358l-13.776,1.584-.064-.553,13.776-1.583Z" transform="translate(-2862.611 -604.441)"/><path class="l" d="M2880.454,639.7l-13.776,1.583-.063-.553,13.775-1.583Z" transform="translate(-2865.123 -626.158)"/><path class="l" d="M2883.13,663.059l-13.775,1.583-.064-.554,13.776-1.583Z" transform="translate(-2867.612 -647.894)"/><path class="l" d="M2885.806,686.4l-13.777,1.583-.064-.552,13.776-1.584Z" transform="translate(-2870.101 -669.608)"/></g></g><g transform="translate(515.329 228.226)"><g transform="translate(0 0)"><path class="m" d="M2939.827,501.2l-22.735-20.779a2.245,2.245,0,0,0-3.172.143l-25.325,27.709a2.244,2.244,0,0,0,.144,3.171l22.735,20.78a2.245,2.245,0,0,0,3.17-.142l25.325-27.71A2.245,2.245,0,0,0,2939.827,501.2Z" transform="translate(-2887.773 -479.83)"/><path class="n" d="M2888.739,859.963l22.735,20.78a2.245,2.245,0,0,0,3.17-.142l3.037-3.322-24.393-22.294a2.244,2.244,0,0,0-3.171.143l-1.522,1.665A2.244,2.244,0,0,0,2888.739,859.963Z" transform="translate(-2887.773 -828.352)"/><path class="o" d="M3003.1,958.345a1.056,1.056,0,0,0-1.491.068l-1.521,1.664a1.055,1.055,0,0,0,.067,1.491l17.612,16.1a2.219,2.219,0,0,0,.907-.6l2.233-2.444Z" transform="translate(-2991.802 -924.817)"/><path class="i" d="M2905.464,875.017a1.056,1.056,0,0,1-.068-1.491l1.521-1.665a1.057,1.057,0,0,1,1.491-.067l23.514,21.49-2.234,2.445a1.056,1.056,0,0,1-1.49.066Z" transform="translate(-2903.696 -844.284)"/><path class="p" d="M2921.567,871.795a1.057,1.057,0,0,0-1.491.067l-.813.889c.393-.429.772-.142,1.2.25l23.514,21.492,1.1-1.208Z" transform="translate(-2916.856 -844.284)"/><path class="j" d="M2887.731,918.283l-1.071-1.932-2.019-.893,3.195-3.5,1.546,1.412,1.544,1.411Z" transform="translate(-2884.641 -881.916)"/><path class="i" d="M3353.812,653.61l7.581,6.93-.39.427-7.583-6.931Z" transform="translate(-3320.825 -641.527)"/><rect class="i" width="1.089" height="23.572" transform="translate(23.737 12.346) rotate(-47.574)"/><rect class="i" width="1.089" height="19.268" transform="matrix(0.675, -0.738, 0.738, 0.675, 23.583, 15.704)"/></g></g><g transform="translate(444.559 231.278)"><path class="q" d="M1877.528,552.836l29.108-10.712-39.82-18.4Zm3.391-7.338-3.972-10.794,14.765,6.821Z" transform="translate(-1866.816 -523.729)"/><g transform="translate(9.934 26.118)"><rect class="i" width="2.532" height="0.708" transform="translate(0 0.875) rotate(-20.212)"/></g><g transform="translate(9.082 24.174)"><rect class="i" width="1.456" height="0.708" transform="translate(0 0.503) rotate(-20.195)"/></g><g transform="translate(8.229 21.485)"><rect class="i" width="2.532" height="0.708" transform="translate(0 0.874) rotate(-20.2)"/></g><g transform="translate(7.377 19.54)"><rect class="i" width="1.456" height="0.708" transform="translate(0 0.503) rotate(-20.212)"/></g><g transform="translate(6.524 16.852)"><rect class="i" width="2.532" height="0.708" transform="translate(0 0.875) rotate(-20.207)"/></g><g transform="translate(5.671 14.907)"><rect class="i" width="1.456" height="0.708" transform="translate(0 0.503) rotate(-20.207)"/></g><g transform="translate(4.819 12.218)"><rect class="i" width="2.532" height="0.708" transform="translate(0 0.875) rotate(-20.207)"/></g><g transform="translate(3.966 10.273)"><rect class="i" width="1.456" height="0.708" transform="translate(0 0.503) rotate(-20.202)"/></g><g transform="translate(3.113 7.585)"><rect class="i" width="2.532" height="0.708" transform="translate(0 0.875) rotate(-20.212)"/></g><g transform="translate(2.261 5.64)"><rect class="i" width="1.456" height="0.708" transform="matrix(0.938, -0.346, 0.346, 0.938, 0, 0.503)"/></g><g transform="translate(1.408 2.951)"><rect class="i" width="2.532" height="0.708" transform="matrix(0.938, -0.346, 0.346, 0.938, 0, 0.875)"/></g></g><g transform="translate(392.044 276.845)"><g transform="translate(0 0)"><path class="r" d="M1156.124,1208.391s3.85-6.585,6.6-10.221,6.469-13.443-2.027-14.485-5-3.878-9.783-4.493-7.63,1-8.2,4.24-3.06,8.588-5.994,8.186-17.321-1.473-12.428,10.621S1156.108,1223.742,1156.124,1208.391Z" transform="translate(-1122.472 -1179.062)"/><path class="s" d="M1722.019,1602.282s6.338,2.759,8.5,3.061-.146,2.625-3.075,3.869-5.7,2.951-7.1.331S1720.473,1601.515,1722.019,1602.282Z" transform="translate(-1677.5 -1572.787)"/><path class="s" d="M1733.26,1565.911s18.975-4.073,22.676-5.319.94,1.805-3.681,4.907-19.278,8.749-20.52,6.592S1726.768,1563.461,1733.26,1565.911Z" transform="translate(-1686.572 -1533.798)"/><path class="t" d="M1548.79,1491.154c-.1-2.01,10.531,5.087,14.263,7.013,2.317,1.2,1.345,7.3.448,9.843C1563.012,1509.4,1549.523,1505.8,1548.79,1491.154Z" transform="translate(-1518.386 -1469.123)"/><path class="u" d="M1350.366,1517.545s-20.161-23.927-12.326-30.039c.691-.539,5.977-5.493,13.419-3.661,2.608.642,6.372,10.965,4.72,15.015-.09.219,2.88,11.191,3.944,13.92C1361.709,1516.848,1350.366,1517.545,1350.366,1517.545Z" transform="translate(-1320.608 -1462.276)"/><path class="s" d="M1126.561,1640.729s-9.966,12.478-10.2,13.881,5.754,7.887,15.872-8.755C1137.788,1636.711,1126.561,1640.729,1126.561,1640.729Z" transform="translate(-1116.015 -1607.811)"/><path class="s" d="M1464.2,1387.035c.62-3.733-3.157.121-3.157.121s.085,5.039-2.054,8.185a9.793,9.793,0,0,0,1.347,1.122,9.266,9.266,0,0,0,6,1.672C1464.518,1393.949,1463.792,1389.486,1464.2,1387.035Z" transform="translate(-1434.83 -1371.059)"/><path class="v" d="M1483.833,1390.686a6.719,6.719,0,0,0,2.167,2.5,6.65,6.65,0,0,0,2.055.951,18.375,18.375,0,0,1-.738-7.1c.62-3.733-3.157.121-3.157.121A20.162,20.162,0,0,1,1483.833,1390.686Z" transform="translate(-1457.947 -1371.059)"/><path class="s" d="M1470.158,1260.486s.484,5.037-.542,7.407-2.217,5.466-4.586,4.44c-1.9-.821-2.609-4.557-3.225-6.276-.6-1.671,2.666-2.254,2.122-7.424C1463.731,1256.765,1468.358,1261.4,1470.158,1260.486Z" transform="translate(-1437.382 -1252.683)"/><g transform="translate(0 46.023)"><path class="s" d="M1118.944,1842.165l8.138,14.313,5.256,5.358,1.7,2.182.3,5.637s-.223.119-.568-.367c-.073-.1-.028.558-.028.558s-1.062.021-1.9-2.961c-.092-.325-.049,1.344-.049,1.344s-.231.163-.908-.916c-.226-.359-.17-.934-.535-1.448a26.479,26.479,0,0,0-1.855-2.457c-.611-.645-1.31-.96-2.225-2a5.823,5.823,0,0,1-1.391-2.67s-8.384-9.069-10.736-12.174-3.471-4.468-1.789-5.351S1118.944,1842.165,1118.944,1842.165Z" transform="translate(-1111.54 -1840.97)"/><g transform="translate(8.978 11.497)"><rect class="d" width="5.395" height="0.628" transform="translate(0 2.126) rotate(-23.21)"/></g><g transform="translate(10.134 12.4)"><rect class="u" width="4.814" height="0.628" transform="translate(0 2.246) rotate(-27.811)"/></g><path class="v" d="M1407.617,2169.722s.365,2.451.62,3.735l.2.871s-.223.119-.568-.367l-.32-3.32-1.424-2.231Z" transform="translate(-1385.644 -2145.643)"/><g transform="translate(19.482 23.289)"><path class="v" d="M1403.575,2222.973s.015,0,.006-.015,0-.012,0-.017l.027-.694C1403.6,2222.6,1403.575,2222.973,1403.575,2222.973Z" transform="translate(-1402.751 -2219.025)"/><path class="v" d="M1391.731,2175.914l1.322,1.867a16.1,16.1,0,0,0,.623,3.21,6.488,6.488,0,0,1-1.131-2.451c-.007-.024-.012-.034-.018-.038l.05-.812Z" transform="translate(-1391.731 -2175.914)"/></g></g><g transform="translate(68.369 26.448)"><path class="s" d="M2204.821,1575.544l1.09,1.7a1.929,1.929,0,0,1-1.266-.717l-.751-1.175Z" transform="translate(-2196.309 -1574.248)"/><path class="s" d="M2175.566,1573.863l.97.889-.134,1.365s-.381.1-.638-1c-.06-.248-1.161-1.182-1.161-1.182Z" transform="translate(-2169.056 -1572.86)"/><path class="s" d="M2095.772,1559.957a18.7,18.7,0,0,1,5.549-.472c2.963.219,2.86,1,3.6,1.537s1.863,1.178.788,1.075-2.491-1.217-3.048-1.3a8.912,8.912,0,0,0-2.18.375c-.814.149-1.406.169-.626.442a3.892,3.892,0,0,1,1.264.557c.225.192.6.46.416.807s-.668-.1-.928-.189-1.74-.04-2.073-.089a12.719,12.719,0,0,1-1.9-1.077,9.158,9.158,0,0,1-1.557-1.3C2094.5,1559.729,2094.958,1560.106,2095.772,1559.957Z" transform="translate(-2094.82 -1559.443)"/></g><path class="t" d="M1246.016,1519.415s3.465,6.421-4.646,14.326c-4.545,4.429-9.421-6.019-9.421-6.019S1243.754,1515.406,1246.016,1519.415Z" transform="translate(-1223.576 -1495.003)"/></g><path class="s" d="M2451.064,2237.859l-12.5-2.562-.4-4.129,3.805-.436S2455.874,2237.2,2451.064,2237.859Z" transform="translate(-2345.919 -2157.607)"/><path class="r" d="M2451.38,2264.06c-.181.014,1.968,3.686-10.729-1.557l.22,2.464s8.931,3.9,14.956,2.537C2457.985,2267.017,2453.876,2265.611,2451.38,2264.06Z" transform="translate(-2348.236 -2187.17)"/><path class="s" d="M2881.975,2688.8l3.572,3.288s12.274-3.781,15.281-9.646c.764-1.491-1.177-1.171-4.92-.035a76.524,76.524,0,0,1-12.452,2.463C2880.839,2685.052,2881.975,2688.8,2881.975,2688.8Z" transform="translate(-2758.647 -2576.97)"/><path class="w" d="M1713.84,1642.933l-1.157-3.044-1.761,0-13.812-33.346s-2.762-10.4-13.009-5.388c-13.248,6.477-28.78,17.387-28.78,17.387s-.81,12.654,2.512,14.012c8.326,3.4,31.307-17.735,31.307-17.735s2.264,12.5,16.983,27.991c3.293,3.466,3.8,3.918,3.8,3.918Z" transform="translate(-1617.43 -1570.54)"/><path class="x" d="M1540.353,1861.753s45.965,43.46,83.526,58.044a36.567,36.567,0,0,1,4.54,1.953l-2.222,5.895-2.914-1.28s-32.646-7.513-36.851-11.16-10.315-11.893-31.719-17.534-23.347-27.843-23.146-28.858S1540.353,1861.753,1540.353,1861.753Z" transform="translate(-1502.351 -1814.285)"/><g transform="translate(32.961 52.558)"><path class="i" d="M1677.555,1993.435c-.122-.042-12.444-4.274-33.68-13-4.907-2.016-11.026-5.654-18.186-10.814-5.725-4.125-12.125-9.228-19.024-15.165-11.744-10.108-20.984-19.257-21.075-19.348l.162-.164c.092.091,9.326,9.235,21.064,19.338,6.893,5.933,13.288,11.031,19.007,15.152,7.145,5.149,13.248,8.778,18.139,10.787,21.229,8.72,33.545,12.951,33.667,12.992Z" transform="translate(-1585.59 -1934.947)"/></g><g transform="translate(36.997 49.868)"><path class="i" d="M1644.865,1903.62l-.2-.121c1.5-2.422-1.008-7.079-1.034-7.126l.2-.11a16.006,16.006,0,0,1,1.106,2.7C1645.553,1900.985,1645.526,1902.551,1644.865,1903.62Z" transform="translate(-1643.635 -1896.263)"/></g><g transform="translate(43.949 34.923)"><path class="i" d="M1793.128,1720.6c-2.993-2.643-7.465-10.019-13.292-21.925-4.048-8.271-7.369-15.958-7.822-17.011l-28.283,17.186-.12-.2,28.51-17.324.052.122c.035.082,3.536,8.268,7.87,17.123,5.731,11.71,10.308,19.267,13.236,21.853Z" transform="translate(-1743.611 -1681.33)"/></g><g transform="translate(90.818 69.256)"><path class="i" d="M2417.848,2179.16l-.163-.162a40.216,40.216,0,0,1,4.369-3.9l.135.187A39.979,39.979,0,0,0,2417.848,2179.16Z" transform="translate(-2417.685 -2175.101)"/></g><path class="r" d="M2919.077,2681.438c2.938,1.754-6.057,6.987-12.059,7.739l2.06,1.9s12.274-3.781,15.281-9.646C2925.013,2680.15,2923.384,2679.827,2919.077,2681.438Z" transform="translate(-2782.176 -2575.96)"/></g><g transform="translate(462.86 220.386)"><g transform="translate(0)"><g transform="translate(13.926 19.452)"><path class="y" d="M2334.033,651.034l-3.373-1.626-.35-.486.47-.338.264.367,2.281,1.1-.316-2.513-.263-.366.47-.338.349.486Z" transform="translate(-2330.31 -646.833)"/></g><path class="y" d="M2158.25,405.385l11.606,16.143-2.235,1.607-11.606-16.143,2.235-1.606m.132-.809-3.175,2.283,12.283,17.084,3.175-2.283-12.283-17.084Z" transform="translate(-2153.456 -401.968)"/><g transform="translate(3.269 3.811)"><rect class="y" width="0.579" height="19.93" transform="translate(0 0.338) rotate(-35.715)"/></g><path class="i" d="M2137.381,372.3l-.706-.982a.3.3,0,0,0-.425-.026l-1.9,1.368a.3.3,0,0,0-.112.412l.707.983" transform="translate(-2133.904 -370.928)"/><path class="y" d="M2130.831,370.362l-.707-.983a.53.53,0,0,1-.09-.4.656.656,0,0,1,.269-.419l1.9-1.368a.593.593,0,0,1,.829.092l.707.983-.47.338-.69-.96a.1.1,0,0,0-.038.017l-1.9,1.368a.107.107,0,0,0-.03.031l.69.96Z" transform="translate(-2130.027 -367.07)"/><rect class="x" width="3.911" height="2.315" transform="translate(0.997 3.843) rotate(-35.718)"/></g></g><g transform="translate(532.882 267.615)"><g transform="translate(14.271 16.123)"><path class="z" d="M3342.318,1278.2" transform="translate(-3342.318 -1278.203)"/></g><g transform="translate(0 0)"><path class="y" d="M3146.62,1065.364h0a9.677,9.677,0,0,1-1.551-.126,9.524,9.524,0,0,1,1.516-18.922,9.647,9.647,0,0,1,1.553.127,9.523,9.523,0,0,1-1.518,18.921Zm-.035-18.469a8.944,8.944,0,0,0-1.423,17.771,9.068,9.068,0,0,0,1.458.119,8.944,8.944,0,0,0,1.425-17.77A9.084,9.084,0,0,0,3146.585,1046.9Z" transform="translate(-3137.079 -1046.316)"/></g><path class="d" d="M3365.573,1321.1l-3.062,2.2-6.871-9.555,3.063-2.2Z" transform="translate(-3340.443 -1293.102)"/><path class="aa" d="M3386.1,1323.633l-1.264.91-6.87-9.556,1.266-.909Z" transform="translate(-3361.214 -1295.459)"/><path class="a" d="M3458.05,1449.711a2.666,2.666,0,0,1-3.062,2.2l-.527-.735,3.062-2.2Q3457.787,1449.344,3458.05,1449.711Z" transform="translate(-3432.393 -1420.979)"/><g transform="translate(14.59 16.658)"><rect class="y" width="0.579" height="3.687" transform="matrix(0.812, -0.584, 0.584, 0.812, 0, 0.338)"/></g></g><g transform="translate(476.091 209.424)"><g transform="translate(0 0)"><path class="ab" d="M2335.372,213.821a7.945,7.945,0,1,1-10.658-3.558A7.945,7.945,0,0,1,2335.372,213.821Z" transform="translate(-2320.317 -209.424)"/></g><g transform="translate(4.46 3.26)"><g transform="translate(0 1.943)"><path class="i" d="M2389.134,289.372a3.256,3.256,0,0,1-4.362-1.456l-.265-.53a.394.394,0,0,1,.706-.352l.264.53a2.464,2.464,0,0,0,4.409-2.2l-.265-.53a.394.394,0,0,1,.705-.353l.265.53A3.257,3.257,0,0,1,2389.134,289.372Z" transform="translate(-2384.465 -284.262)"/></g><path class="i" d="M2392.544,261.954a1.678,1.678,0,0,1-2.248-.75l-1.232-2.468a1.675,1.675,0,1,1,3-1.5l1.233,2.468A1.677,1.677,0,0,1,2392.544,261.954Z" transform="translate(-2388.58 -256.311)"/><g transform="translate(4.142 6.394)"><path class="i" d="M2445.36,350.519a.394.394,0,0,1-.529-.177l-.748-1.5a.394.394,0,1,1,.705-.352l.749,1.5A.394.394,0,0,1,2445.36,350.519Z" transform="translate(-2444.042 -348.273)"/></g><g transform="translate(3.216 7.056)"><path class="i" d="M2434.636,358.54l-3.35,1.673a.394.394,0,1,1-.352-.706l3.35-1.673a.394.394,0,0,1,.352.706Z" transform="translate(-2430.716 -357.793)"/></g></g></g><g transform="translate(565.279 287.367)"><g transform="translate(0)"><path class="x" d="M3618.81,1339.628a7.945,7.945,0,1,1-6.559-9.123A7.945,7.945,0,0,1,3618.81,1339.628Z" transform="translate(-3603.022 -1330.4)"/></g></g><g transform="translate(564.273 308.562)"><path class="m" d="M3681.225,1669.676c8.356-7.652,10.521-18.89,2.171-28.007s-19.732-7.945-28.089-.291c-6.519,5.969-4.6,12.613-6.45,21.443-.366,1.748-5.269,4.825-5.269,4.825l10.44,11.4s3.5-4.615,5.268-4.825C3668.257,1673.147,3674.706,1675.647,3681.225,1669.676Z" transform="translate(-3639.761 -1635.23)"/><path class="ac" d="M3650.734,1675.887c2.563-12.2-.1-21.383,8.913-29.633a35.888,35.888,0,0,1,6.125-4.54,23.2,23.2,0,0,0-10.466,5.7c-6.519,5.969-4.6,12.613-6.45,21.443-.366,1.748-5.269,4.826-5.269,4.826l4.789,5.229A7.194,7.194,0,0,0,3650.734,1675.887Z" transform="translate(-3639.761 -1641.263)"/><path class="w" d="M3592.2,2098.637l-1.571,1.439a6.4,6.4,0,0,0-.4,9.037l2.16,2.358a6.4,6.4,0,0,0,9.036.4l1.571-1.438Z" transform="translate(-3588.553 -2066.416)"/><g transform="translate(23.204 12.357)"><path class="ad" d="M3936.384,1828.8l-1.575-.276.518-2.95-4.019.35.7-3.967-4.015.351.7-3.966-4.012.354.7-3.966-2.969.265-.142-1.593,5.049-.45-.7,3.968,4.011-.354-.7,3.968,4.015-.351-.7,3.968,4.015-.349Z" transform="translate(-3922.278 -1812.952)"/></g><g transform="translate(7.287 17.189)"><path class="ad" d="M3694.437,1902.229l-1.08-1.179,9.8-8.972,5.337-9.637,1.4.775-5.464,9.865Z" transform="translate(-3693.356 -1882.441)"/></g><g transform="translate(10.601 25.69)"><path class="ad" d="M3742.1,2019.614l-1.08-1.179,9.99-9.15,10.306-4.577.649,1.461-10.067,4.471Z" transform="translate(-3741.016 -2004.708)"/></g><path class="x" d="M3660.749,2163.982l-6.749-7.37,1.226-1.121,6.749,7.37Z" transform="translate(-3649.45 -2119.316)"/><rect class="x" width="1.661" height="7.194" transform="matrix(0.737, -0.675, 0.675, 0.737, 2.34, 39.321)"/></g><g transform="translate(404.065 210.128)"><g transform="translate(0.552 56.239)"><path class="y" d="M1292.575,1029.615c-.072-.384-.139-.771-.2-1.149l.572-.091c.06.373.126.755.2,1.134Z" transform="translate(-1292.376 -1028.375)"/></g><g transform="translate(0 0)"><path class="y" d="M1284.679,273.587c-.081-.763-.143-1.537-.185-2.3l.578-.031c.041.754.1,1.518.182,2.27Zm.332-4.608h-.579v-.018c0-.76.02-1.53.061-2.288l.579.031c-.04.748-.06,1.508-.06,2.258Zm.241-4.544-.576-.062c.082-.763.185-1.534.308-2.292l.572.092C1285.435,262.921,1285.333,263.682,1285.253,264.435Zm.727-4.5-.566-.122c.162-.748.346-1.5.548-2.244l.559.152C1286.321,258.449,1286.139,259.194,1285.979,259.932Zm1.2-4.4-.55-.181c.238-.725.5-1.456.776-2.172l.541.209C1287.668,254.1,1287.41,254.82,1287.175,255.536Zm1.64-4.246-.529-.236c.31-.7.643-1.4.989-2.081l.517.261C1289.45,249.911,1289.121,250.6,1288.815,251.29Zm2.052-4.06-.5-.286c.376-.662.774-1.326,1.184-1.974l.49.31C1291.632,245.921,1291.239,246.577,1290.867,247.23Zm2.431-3.843-.475-.332c.437-.624.9-1.247,1.362-1.854l.459.354C1294.183,242.154,1293.73,242.771,1293.3,243.387Zm2.775-3.6-.443-.374c.491-.581,1-1.161,1.523-1.723l.426.393C1297.065,238.637,1296.559,239.21,1296.073,239.785Zm3.089-3.345-.408-.411c.542-.538,1.1-1.072,1.671-1.588l.39.428C1300.254,235.38,1299.7,235.908,1299.162,236.44Zm3.371-3.071-.372-.444c.586-.49,1.191-.975,1.8-1.441l.353.459C1303.711,232.4,1303.112,232.884,1302.533,233.369Zm3.617-2.778-.333-.474c.624-.44,1.267-.873,1.911-1.288l.314.487C1307.4,229.728,1306.768,230.157,1306.15,230.592Zm3.833-2.472-.294-.5c.658-.387,1.334-.767,2.009-1.129l.274.511C1311.3,227.36,1310.634,227.736,1309.983,228.12Zm4.02-2.155-.253-.521c.687-.334,1.391-.659,2.092-.965l.232.531C1315.38,225.312,1314.683,225.634,1314,225.964Zm4.179-1.829-.211-.539c.712-.278,1.439-.547,2.161-.8l.19.547C1319.607,223.594,1318.887,223.86,1318.182,224.135Zm4.31-1.494-.168-.554c.731-.222,1.477-.432,2.218-.625l.146.561C1323.955,222.213,1323.216,222.422,1322.492,222.641Zm4.414-1.152-.125-.566c.746-.164,1.506-.316,2.259-.451l.1.57C1328.4,221.176,1327.645,221.326,1326.906,221.489Zm24.914-.119c-.743-.153-1.5-.293-2.243-.418l.1-.571c.752.126,1.514.268,2.264.422Zm-20.424-.686-.08-.574c.757-.106,1.526-.2,2.287-.274l.058.576C1332.907,220.488,1332.145,220.579,1331.4,220.684Zm15.924-.067c-.752-.1-1.515-.182-2.268-.25l.053-.577c.76.069,1.53.154,2.29.253Zm-11.385-.388-.036-.578c.762-.047,1.537-.08,2.3-.1l.013.579C1337.457,220.149,1336.69,220.182,1335.935,220.228Zm6.841-.027c-.757-.04-1.524-.067-2.28-.078l.009-.579c.763.012,1.538.038,2.3.079Z" transform="translate(-1284.432 -219.544)"/></g><g transform="translate(69.666 1.776)"><path class="y" d="M2287.5,245.927c-.366-.1-.742-.192-1.118-.284l.137-.563c.379.093.759.189,1.129.287Z" transform="translate(-2286.377 -245.08)"/></g></g><g transform="translate(498.764 260.175)"><path class="y" d="M2678.6,978.842c-.312,0-.627,0-.936-.014l.017-.579c.753.023,1.525.017,2.295-.017l.026.579C2679.532,978.831,2679.06,978.842,2678.6,978.842Zm-3.268-.176c-.775-.085-1.552-.2-2.311-.347l.11-.569c.743.143,1.5.257,2.264.34Zm7-.041-.066-.576c.748-.086,1.513-.2,2.273-.336l.1.57C2683.867,978.423,2683.09,978.538,2682.329,978.625Zm4.594-.827-.137-.563c.731-.178,1.478-.382,2.219-.607l.168.555C2688.422,977.411,2687.665,977.618,2686.923,977.8Zm-16.179-.016c-.747-.21-1.5-.454-2.223-.725l.2-.543c.712.266,1.445.505,2.177.71Zm20.643-1.331-.2-.545c.709-.255,1.432-.533,2.149-.829l.221.536C2692.836,975.911,2692.1,976.193,2691.387,976.451Zm-25.02-.3c-.7-.329-1.4-.694-2.072-1.083l.289-.5c.663.381,1.346.738,2.03,1.061Zm-4.051-2.328c-.635-.435-1.267-.9-1.877-1.394l.363-.452c.6.48,1.219.941,1.842,1.368Zm-3.643-2.918c-.563-.522-1.12-1.075-1.656-1.644l.421-.4c.527.559,1.075,1.1,1.628,1.616Zm-3.2-3.393c-.49-.592-.972-1.212-1.433-1.844l.468-.341c.454.622.928,1.233,1.411,1.816Zm-2.753-3.77c-.417-.648-.823-1.32-1.208-2l.5-.286c.379.668.779,1.331,1.191,1.97Zm-2.3-4.06c-.344-.694-.674-1.407-.98-2.119l.532-.229c.3.7.627,1.406.967,2.09Zm-1.843-4.289c-.268-.734-.518-1.479-.74-2.215l.555-.167c.219.726.465,1.461.729,2.184Zm-1.347-4.472c-.183-.772-.338-1.544-.461-2.293l.572-.094c.121.736.274,1.495.453,2.254Zm-.751-4.618c-.054-.657-.082-1.3-.082-1.912,0-.145,0-.291,0-.435l.579.013q0,.209,0,.423c0,.6.027,1.222.08,1.864Zm.708-4.6-.571-.1a9.486,9.486,0,0,1,.671-2.288l.528.239A8.927,8.927,0,0,0,2647.184,941.7Z" transform="translate(-2646.394 -939.316)"/></g><g transform="translate(558.746 282.069)"><path class="y" d="M3540.7,1313.255v-.579c.76,0,1.537-.014,2.309-.038l.018.579C3542.248,1313.241,3541.466,1313.254,3540.7,1313.255Zm-2.328-.032c-.787-.023-1.569-.06-2.326-.109l.037-.578c.75.048,1.526.084,2.307.107Zm6.976-.112-.035-.578c.766-.045,1.541-.1,2.3-.169l.05.577C3546.9,1313.009,3546.12,1313.066,3545.349,1313.112Zm-11.624-.19c-.79-.081-1.567-.179-2.313-.29l.085-.573c.737.109,1.506.206,2.288.286Zm16.258-.215-.067-.575c.773-.09,1.543-.191,2.289-.3l.084.573C3551.538,1312.514,3550.762,1312.616,3549.983,1312.707Zm-20.869-.477c-.787-.16-1.553-.34-2.274-.536l.151-.559c.71.192,1.463.37,2.238.527Zm25.473-.206-.1-.57c.788-.145,1.548-.3,2.258-.463l.129.565C3556.151,1311.721,3555.383,1311.878,3554.587,1312.024Zm-29.981-1.03a22.439,22.439,0,0,1-2.165-.906l.253-.521a21.81,21.81,0,0,0,2.108.882Zm34.525-.027-.165-.556c.118-.034.232-.07.345-.1.623-.194,1.237-.407,1.826-.634l.208.541c-.6.231-1.228.449-1.863.646Zm4.361-1.687-.254-.521c.694-.339,1.369-.709,2.006-1.1l.3.494C3564.894,1308.555,3564.2,1308.934,3563.492,1309.281Zm-43.1-.36a12.454,12.454,0,0,1-1.835-1.5l.41-.41a11.863,11.863,0,0,0,1.749,1.425Zm47.085-2.1-.353-.459a20.346,20.346,0,0,0,1.729-1.49l.4.417A20.824,20.824,0,0,1,3567.479,1306.826Zm-50.392-1.269a8.64,8.64,0,0,1-.933-2.193l.559-.151a8.094,8.094,0,0,0,.871,2.047Zm53.76-1.994-.449-.366a18.912,18.912,0,0,0,1.33-1.852l.49.309A19.387,19.387,0,0,1,3570.848,1303.564Zm-55.011-2.557c0-.039,0-.077,0-.116a12.094,12.094,0,0,1,.22-2.245l.569.108a11.483,11.483,0,0,0-.21,2.136c0,.036,0,.073,0,.11Zm57.509-1.411-.524-.247a19.468,19.468,0,0,0,.849-2.117l.549.184A20.077,20.077,0,0,1,3573.346,1299.6Zm-56.084-2.982-.522-.251a8.358,8.358,0,0,1,1.36-1.968l.429.39A7.772,7.772,0,0,0,3517.262,1296.613Zm57.576-1.464-.566-.121a21.831,21.831,0,0,0,.358-2.259l.576.061A22.434,22.434,0,0,1,3574.838,1295.149Zm-54.633-1.889-.354-.459a20.29,20.29,0,0,1,1.949-1.317l.3.5A19.569,19.569,0,0,0,3520.205,1293.26Zm3.914-2.369-.254-.521c.691-.337,1.412-.656,2.142-.949l.216.538C3525.506,1290.246,3524.8,1290.56,3524.119,1290.891Zm51.216-.4-.58,0c0-.056,0-.112,0-.169,0-.7-.03-1.409-.09-2.119l.577-.049c.062.726.093,1.456.093,2.168C3575.336,1290.375,3575.335,1290.432,3575.335,1290.49Zm-.959-4.565c-.126-.742-.287-1.5-.476-2.244l.562-.142c.192.761.356,1.531.485,2.289Zm-1.122-4.446c-.239-.717-.51-1.44-.8-2.151l.535-.222c.3.723.575,1.46.818,2.189Zm-1.754-4.243c-.335-.679-.7-1.361-1.085-2.026l.5-.29c.39.676.761,1.369,1.1,2.059Zm-2.3-3.981c-.419-.633-.866-1.264-1.328-1.877l.463-.349c.469.622.922,1.263,1.348,1.906Zm-2.766-3.672c-.493-.581-1.011-1.156-1.54-1.709l.419-.4c.537.561,1.062,1.145,1.563,1.734Zm-3.175-3.327c-.557-.521-1.137-1.033-1.724-1.523l.371-.445c.6.5,1.184,1.017,1.749,1.545Zm-3.531-2.948c-.611-.455-1.245-.9-1.882-1.322l.319-.483c.647.428,1.289.879,1.909,1.341Zm-3.835-2.538c-.658-.385-1.336-.758-2.016-1.108l.265-.515c.689.355,1.377.733,2.044,1.123Zm-46.615-.834-.224-.534c.717-.3,1.443-.594,2.157-.869l.208.541C3510.714,1259.345,3509.993,1259.636,3509.281,1259.935Zm42.525-1.271c-.7-.312-1.411-.609-2.124-.884l.208-.541c.724.279,1.448.58,2.153.9Zm-38.217-.388-.191-.547c.734-.257,1.477-.5,2.208-.731l.173.553C3515.054,1257.778,3514.317,1258.022,3513.589,1258.276Zm33.925-1.266c-.724-.236-1.466-.456-2.206-.655l.151-.56c.749.2,1.5.425,2.235.664Zm-29.521-.11-.153-.559c.75-.206,1.508-.4,2.255-.577l.133.564C3519.488,1256.5,3518.736,1256.7,3517.993,1256.9Zm4.488-1.061-.112-.568c.763-.15,1.534-.287,2.292-.406l.09.573C3524,1255.555,3523.236,1255.69,3522.481,1255.839Zm20.59-.024c-.744-.16-1.505-.3-2.262-.426l.093-.572c.766.125,1.537.27,2.291.432Zm-16.036-.688-.066-.575c.772-.089,1.553-.162,2.319-.218l.042.578C3528.573,1254.966,3527.8,1255.038,3527.036,1255.126Zm11.494-.051c-.756-.085-1.528-.153-2.293-.2l.037-.578c.775.05,1.556.118,2.321.2Zm-6.9-.281-.017-.579c.487-.014.979-.021,1.462-.021h0c.288,0,.579,0,.865.007l-.01.579c-.283,0-.571-.007-.855-.007h0C3532.6,1254.774,3532.113,1254.781,3531.632,1254.795Z" transform="translate(-3509.057 -1254.195)"/></g><g transform="translate(585.143 314.712)"><path class="y" d="M3899.072,1735.508c-.365,0-.733,0-1.095-.007l.008-.579c.759.011,1.54.01,2.309,0l.009.579C3899.894,1735.5,3899.48,1735.508,3899.072,1735.508Zm-3.42-.076c-.806-.037-1.587-.087-2.325-.15l.049-.577c.729.062,1.5.112,2.3.148Zm6.978,0-.025-.579c.775-.033,1.551-.078,2.307-.133l.042.578C3904.191,1735.352,3903.409,1735.4,3902.629,1735.431Zm4.643-.338-.06-.576c.781-.081,1.551-.175,2.29-.279l.081.574C3908.837,1734.916,3908.06,1735.01,3907.272,1735.093Zm-16.265-.068a22.451,22.451,0,0,1-2.308-.434l.142-.562a21.885,21.885,0,0,0,2.247.422Zm20.877-.588-.106-.57c.787-.146,1.545-.307,2.252-.479l.137.563C3913.45,1734.126,3912.681,1734.29,3911.885,1734.438Zm4.536-1.121-.179-.551a19.55,19.55,0,0,0,2.129-.824l.243.526A20.146,20.146,0,0,1,3916.421,1733.317Zm4.245-2.042-.348-.464a4.93,4.93,0,0,0,1.45-1.607l.514.268A5.5,5.5,0,0,1,3920.666,1731.275Zm1.294-4.033a3.192,3.192,0,0,0-1.54-1.4l.265-.515a3.737,3.737,0,0,1,1.8,1.673Zm-3.658-2.167a21.739,21.739,0,0,0-2.246-.451l.086-.573a22.3,22.3,0,0,1,2.306.463Zm-4.534-.711c-1.331-.107-2.3-.112-2.3-.112l0-.579c.01,0,.994.005,2.349.114Z" transform="translate(-3888.7 -1723.673)"/></g><g transform="translate(400.385 235.962)"><g transform="translate(0 0)"><path class="u" d="M1247.3,600.319a7.945,7.945,0,1,1-6.559-9.123A7.945,7.945,0,0,1,1247.3,600.319Z" transform="translate(-1231.511 -591.09)"/></g><g transform="translate(3.82 4.486)"><path class="i" d="M1375.2,680.85l-.239,1.463,1.449,1.739.718-4.39Z" transform="translate(-1368.808 -677.99)"/><path class="i" d="M1291.859,661.312a.514.514,0,0,1-.589.424l-4.389-.718a.513.513,0,0,1-.423-.589l.718-4.39a.514.514,0,0,1,.589-.424l4.389.718a.514.514,0,0,1,.424.589Z" transform="translate(-1286.45 -655.609)"/></g></g><g transform="translate(567.83 290.593)"><g transform="translate(1.106)"><path class="i" d="M3657.318,1377.791a.86.86,0,1,1-.709-.988A.859.859,0,0,1,3657.318,1377.791Z" transform="translate(-3655.61 -1376.792)"/></g><g transform="translate(0 2.052)"><path class="i" d="M3640.551,1409.28l-.848-.139.347-2.121a.86.86,0,0,1,.986-.709l2.545.416-.139.848-2.545-.416Z" transform="translate(-3639.703 -1406.3)"/></g><g transform="translate(0.008 4.114)"><path class="i" d="M3641.94,1439.7l-.849-.139.417-2.545-.424-.07-.416,2.545-.849-.138.555-3.393,2.121.347Z" transform="translate(-3639.819 -1435.964)"/></g><g transform="translate(0.424 2.418)"><rect class="i" width="2.579" height="2.149" transform="translate(0 2.545) rotate(-80.714)"/></g><g transform="translate(8.741 1.248)"><path class="i" d="M3765.427,1395.464a.86.86,0,1,0,.987-.71A.859.859,0,0,0,3765.427,1395.464Z" transform="translate(-3765.416 -1394.743)"/></g><g transform="translate(7.133 3.034)"><path class="i" d="M3745.338,1423.948l-.848-.138.347-2.121-2.545-.416.139-.848,2.545.416a.861.861,0,0,1,.709.987Z" transform="translate(-3742.292 -1420.425)"/></g><g transform="translate(7.218 5.293)"><path class="i" d="M3745.636,1456.658l-.849-.139.416-2.545-.424-.069-.417,2.545-.848-.139.555-3.393,2.121.347Z" transform="translate(-3743.515 -1452.918)"/></g><g transform="translate(7.634 3.596)"><path class="i" d="M3749.5,1431.059l2.121.347.416-2.545-2.121-.347Z" transform="translate(-3749.499 -1428.514)"/></g><g transform="translate(4.924 0.624)"><path class="i" d="M3710.526,1386.487a.859.859,0,1,0,.986-.71A.858.858,0,0,0,3710.526,1386.487Z" transform="translate(-3710.514 -1385.766)"/></g><g transform="translate(3.825 3.042)"><rect class="i" width="5.157" height="1.719" transform="translate(0 5.089) rotate(-80.698)"/></g><g transform="translate(3.886 2.676)"><path class="i" d="M3698.141,1418.107l-.849-.139.277-1.7-.848-.139-.277,1.7-.849-.139.278-1.7a.861.861,0,0,1,.987-.71l.849.139a.861.861,0,0,1,.709.987Z" transform="translate(-3695.596 -1415.274)"/></g></g><g transform="translate(476.789 257.992)"><rect class="aa" width="1.668" height="1.668" transform="translate(3.336 8.34)"/><rect class="aa" width="1.668" height="1.668" transform="translate(5.838 8.34)"/><rect class="aa" width="1.668" height="1.668" transform="translate(8.34 8.34)"/><rect class="aa" width="1.668" height="1.668" transform="translate(10.842 8.34)"/><rect class="aa" width="1.668" height="1.668" transform="translate(3.336 10.842)"/><rect class="aa" width="1.668" height="1.668" transform="translate(5.838 10.842)"/><rect class="aa" width="1.668" height="1.668" transform="translate(8.34 10.842)"/><rect class="aa" width="1.668" height="1.668" transform="translate(3.336 13.344)"/><rect class="aa" width="1.668" height="1.668" transform="translate(5.838 13.344)"/><rect class="aa" width="1.668" height="1.668" transform="translate(8.34 13.344)"/><path class="aa" d="M2486.276,1064.7v3.336h1.668v-4.17h-1.668Z" transform="translate(-2475.434 -1053.022)"/><path class="aa" d="M2379.992,957.58h7.506v-1.668h-9.174v3.336h1.668Z" transform="translate(-2374.988 -952.576)"/><path class="aa" d="M2330.345,909.6v15.012a1.67,1.67,0,0,0,1.668,1.668h12.51a1.67,1.67,0,0,0,1.668-1.668V909.6a1.67,1.67,0,0,0-1.668-1.668h-12.51A1.67,1.67,0,0,0,2330.345,909.6Zm14.179,15.012h-12.511V909.6h12.51Z" transform="translate(-2330.345 -907.931)"/></g><path class="aa" d="M3819.165,880.735h27.313c0-.025,0-.049,0-.075a5.48,5.48,0,0,0-6.975-5.283,8.059,8.059,0,0,0-16.041,1.1c0,.018,0,.035,0,.053A4.915,4.915,0,0,0,3819.165,880.735Z" transform="translate(-3238.857 -613.177)"/></g></svg>